<svg width="29" height="29" viewBox="0 0 29 29" fill="none" xmlns="http://www.w3.org/2000/svg">
<g opacity="0.3">
<path d="M15.7083 3.625C12.824 3.625 10.0579 4.77076 8.01847 6.81021C5.97901 8.84967 4.83325 11.6158 4.83325 14.5H1.20825L5.90867 19.2004L5.99325 19.3696L10.8749 14.5H7.24992C7.24992 9.82375 11.032 6.04167 15.7083 6.04167C20.3845 6.04167 24.1666 9.82375 24.1666 14.5C24.1666 19.1763 20.3845 22.9583 15.7083 22.9583C13.3762 22.9583 11.2616 22.0038 9.73909 20.4692L8.02325 22.185C9.03029 23.1976 10.2278 24.0008 11.5468 24.5483C12.8658 25.0958 14.2801 25.3768 15.7083 25.375C18.5925 25.375 21.3586 24.2292 23.398 22.1898C25.4375 20.1503 26.5833 17.3842 26.5833 14.5C26.5833 11.6158 25.4375 8.84967 23.398 6.81021C21.3586 4.77076 18.5925 3.625 15.7083 3.625ZM14.4999 9.66667V15.7083L19.6353 18.7533L20.5658 17.1946L16.3124 14.6692V9.66667H14.4999Z" fill="black"/>
</g>
</svg>
