<svg width="25" height="25" viewBox="0 0 25 25" fill="none" xmlns="http://www.w3.org/2000/svg">
<path d="M23.3357 13.0309C23.1937 13.0322 23.0567 12.9784 22.9535 12.8811L22.5071 12.4346L20.8 10.7275V13.1417V23.35C20.8 23.4959 20.742 23.6358 20.6389 23.7389L21.346 24.446L20.6389 23.7389C20.5357 23.8421 20.3958 23.9 20.25 23.9H17.15C17.0041 23.9 16.8642 23.8421 16.7611 23.7389L16.054 24.446L16.7611 23.7389C16.6579 23.6358 16.6 23.4959 16.6 23.35V20.25C16.6 19.5737 16.3313 18.9251 15.8531 18.4469C15.3749 17.9687 14.7263 17.7 14.05 17.7H10.95C10.2737 17.7 9.62507 17.9687 9.14685 18.4469C8.66863 18.9251 8.39997 19.5737 8.39997 20.25V23.35C8.39997 23.4959 8.34202 23.6358 8.23888 23.7389C8.13574 23.8421 7.99584 23.9 7.84997 23.9H4.74997C4.6041 23.9 4.46421 23.8421 4.36106 23.7389L3.65396 24.446L4.36106 23.7389C4.25792 23.6358 4.19997 23.4959 4.19997 23.35V13.1417V10.7275L2.49286 12.4346L2.04641 12.8811C1.9432 12.9784 1.80628 13.0322 1.66424 13.0309C1.52003 13.0297 1.38208 12.9718 1.28011 12.8699C1.17814 12.7679 1.12029 12.63 1.11904 12.4857C1.11781 12.3437 1.17157 12.2068 1.26894 12.1036L12.1111 1.26137C12.2143 1.15827 12.3541 1.10034 12.5 1.10034C12.6458 1.10034 12.7857 1.15827 12.8888 1.26137L23.731 12.1036C23.8284 12.2068 23.8821 12.3437 23.8809 12.4857C23.8797 12.63 23.8218 12.7679 23.7198 12.8699L24.4269 13.577L23.7198 12.8699C23.6179 12.9718 23.4799 13.0297 23.3357 13.0309Z" stroke="#ADADAF" stroke-width="2"/>
</svg>
