<svg width="134" height="128" viewBox="0 0 134 128" fill="none" xmlns="http://www.w3.org/2000/svg">
<path d="M51.1374 122.986C56.7388 122.986 61.2796 118.445 61.2796 112.844C61.2796 107.242 56.7388 102.701 51.1374 102.701C45.536 102.701 40.9952 107.242 40.9952 112.844C40.9952 118.445 45.536 122.986 51.1374 122.986Z" stroke="#C7C7C7" stroke-width="10" stroke-linecap="round" stroke-linejoin="round"/>
<path d="M107.702 122.986C113.303 122.986 117.844 118.445 117.844 112.844C117.844 107.242 113.303 102.701 107.702 102.701C102.1 102.701 97.5593 107.242 97.5593 112.844C97.5593 118.445 102.1 122.986 107.702 122.986Z" stroke="#C7C7C7" stroke-width="10" stroke-linecap="round" stroke-linejoin="round"/>
<mask id="path-3-outside-1_411_21" maskUnits="userSpaceOnUse" x="0" y="0" width="134" height="98" fill="black">
<rect fill="white" width="134" height="98"/>
<path d="M10 10C18.0326 10 30.5687 10 30.5687 10L44.3498 78.8539C44.82 81.2213 46.1079 83.3479 47.9881 84.8615C49.8683 86.375 52.2209 87.179 54.6342 87.1328H104.616C107.029 87.179 109.382 86.375 111.262 84.8615C113.142 83.3479 114.43 81.2213 114.901 78.8539L123.128 35.7109C123.128 35.7109 69.8494 35.7109 35.7109 35.7109"/>
</mask>
<path d="M10 0C4.47715 0 0 4.47715 0 10C0 15.5228 4.47715 20 10 20V0ZM30.5687 10L40.3743 8.03743C39.4388 3.36385 35.335 0 30.5687 0V10ZM44.3498 78.8539L54.1582 76.9057C54.1572 76.9009 54.1563 76.8961 54.1553 76.8913L44.3498 78.8539ZM54.6342 87.1328V77.1328C54.5703 77.1328 54.5064 77.1334 54.4426 77.1346L54.6342 87.1328ZM104.616 87.1328L104.808 77.1346C104.744 77.1334 104.68 77.1328 104.616 77.1328V87.1328ZM114.901 78.8539L124.709 80.802C124.714 80.7771 124.719 80.7521 124.724 80.7271L114.901 78.8539ZM123.128 35.7109L132.951 37.5842C133.509 34.6567 132.733 31.6327 130.833 29.3365C128.933 27.0402 126.108 25.7109 123.128 25.7109V35.7109ZM35.7109 25.7109C30.1881 25.7109 25.7109 30.1881 25.7109 35.7109C25.7109 41.2338 30.1881 45.7109 35.7109 45.7109V25.7109ZM10 20C10.0157 20 10.0314 20 10.0471 20C10.0628 20 10.0786 20 10.0943 20C10.1101 20 10.1259 20 10.1417 20C10.1574 20 10.1733 20 10.1891 20C10.2049 20 10.2207 20 10.2366 20C10.2525 20 10.2683 20 10.2842 20C10.3001 20 10.316 20 10.3319 20C10.3479 20 10.3638 20 10.3798 20C10.3957 20 10.4117 20 10.4277 20C10.4437 20 10.4597 20 10.4757 20C10.4917 20 10.5077 20 10.5238 20C10.5398 20 10.5559 20 10.572 20C10.5881 20 10.6042 20 10.6203 20C10.6364 20 10.6525 20 10.6687 20C10.6848 20 10.701 20 10.7172 20C10.7333 20 10.7495 20 10.7657 20C10.7819 20 10.7982 20 10.8144 20C10.8306 20 10.8469 20 10.8631 20C10.8794 20 10.8957 20 10.912 20C10.9283 20 10.9446 20 10.9609 20C10.9772 20 10.9936 20 11.0099 20C11.0263 20 11.0427 20 11.059 20C11.0754 20 11.0918 20 11.1082 20C11.1246 20 11.1411 20 11.1575 20C11.174 20 11.1904 20 11.2069 20C11.2233 20 11.2398 20 11.2563 20C11.2728 20 11.2893 20 11.3059 20C11.3224 20 11.3389 20 11.3555 20C11.372 20 11.3886 20 11.4052 20C11.4217 20 11.4383 20 11.4549 20C11.4715 20 11.4882 20 11.5048 20C11.5214 20 11.5381 20 11.5547 20C11.5714 20 11.5881 20 11.6047 20C11.6214 20 11.6381 20 11.6548 20C11.6715 20 11.6883 20 11.705 20C11.7217 20 11.7385 20 11.7552 20C11.772 20 11.7888 20 11.8056 20C11.8224 20 11.8392 20 11.856 20C11.8728 20 11.8896 20 11.9064 20C11.9233 20 11.9401 20 11.957 20C11.9738 20 11.9907 20 12.0076 20C12.0245 20 12.0414 20 12.0583 20C12.0752 20 12.0921 20 12.109 20C12.126 20 12.1429 20 12.1599 20C12.1768 20 12.1938 20 12.2108 20C12.2277 20 12.2447 20 12.2617 20C12.2787 20 12.2957 20 12.3128 20C12.3298 20 12.3468 20 12.3639 20C12.3809 20 12.398 20 12.415 20C12.4321 20 12.4492 20 12.4663 20C12.4834 20 12.5005 20 12.5176 20C12.5347 20 12.5518 20 12.5689 20C12.5861 20 12.6032 20 12.6204 20C12.6375 20 12.6547 20 12.6719 20C12.689 20 12.7062 20 12.7234 20C12.7406 20 12.7578 20 12.775 20C12.7922 20 12.8095 20 12.8267 20C12.8439 20 12.8612 20 12.8784 20C12.8957 20 12.913 20 12.9302 20C12.9475 20 12.9648 20 12.9821 20C12.9994 20 13.0167 20 13.034 20C13.0513 20 13.0686 20 13.0859 20C13.1033 20 13.1206 20 13.138 20C13.1553 20 13.1727 20 13.19 20C13.2074 20 13.2248 20 13.2422 20C13.2596 20 13.277 20 13.2944 20C13.3118 20 13.3292 20 13.3466 20C13.364 20 13.3814 20 13.3989 20C13.4163 20 13.4338 20 13.4512 20C13.4687 20 13.4861 20 13.5036 20C13.5211 20 13.5386 20 13.5561 20C13.5735 20 13.591 20 13.6085 20C13.626 20 13.6436 20 13.6611 20C13.6786 20 13.6961 20 13.7137 20C13.7312 20 13.7487 20 13.7663 20C13.7838 20 13.8014 20 13.819 20C13.8365 20 13.8541 20 13.8717 20C13.8893 20 13.9069 20 13.9245 20C13.9421 20 13.9597 20 13.9773 20C13.9949 20 14.0125 20 14.0301 20C14.0478 20 14.0654 20 14.083 20C14.1007 20 14.1183 20 14.136 20C14.1536 20 14.1713 20 14.1889 20C14.2066 20 14.2243 20 14.242 20C14.2596 20 14.2773 20 14.295 20C14.3127 20 14.3304 20 14.3481 20C14.3658 20 14.3835 20 14.4012 20C14.419 20 14.4367 20 14.4544 20C14.4721 20 14.4899 20 14.5076 20C14.5254 20 14.5431 20 14.5609 20C14.5786 20 14.5964 20 14.6141 20C14.6319 20 14.6497 20 14.6674 20C14.6852 20 14.703 20 14.7208 20C14.7386 20 14.7564 20 14.7742 20C14.7919 20 14.8098 20 14.8276 20C14.8454 20 14.8632 20 14.881 20C14.8988 20 14.9166 20 14.9345 20C14.9523 20 14.9701 20 14.988 20C15.0058 20 15.0236 20 15.0415 20C15.0593 20 15.0772 20 15.095 20C15.1129 20 15.1307 20 15.1486 20C15.1665 20 15.1843 20 15.2022 20C15.2201 20 15.238 20 15.2558 20C15.2737 20 15.2916 20 15.3095 20C15.3274 20 15.3453 20 15.3632 20C15.3811 20 15.399 20 15.4169 20C15.4348 20 15.4527 20 15.4706 20C15.4885 20 15.5064 20 15.5243 20C15.5423 20 15.5602 20 15.5781 20C15.596 20 15.614 20 15.6319 20C15.6498 20 15.6678 20 15.6857 20C15.7036 20 15.7216 20 15.7395 20C15.7575 20 15.7754 20 15.7934 20C15.8113 20 15.8293 20 15.8472 20C15.8652 20 15.8831 20 15.9011 20C15.9191 20 15.937 20 15.955 20C15.973 20 15.9909 20 16.0089 20C16.0269 20 16.0448 20 16.0628 20C16.0808 20 16.0988 20 16.1168 20C16.1347 20 16.1527 20 16.1707 20C16.1887 20 16.2067 20 16.2247 20C16.2426 20 16.2606 20 16.2786 20C16.2966 20 16.3146 20 16.3326 20C16.3506 20 16.3686 20 16.3866 20C16.4046 20 16.4226 20 16.4406 20C16.4586 20 16.4766 20 16.4946 20C16.5126 20 16.5306 20 16.5486 20C16.5666 20 16.5846 20 16.6026 20C16.6206 20 16.6386 20 16.6566 20C16.6746 20 16.6927 20 16.7107 20C16.7287 20 16.7467 20 16.7647 20C16.7827 20 16.8007 20 16.8187 20C16.8367 20 16.8548 20 16.8728 20C16.8908 20 16.9088 20 16.9268 20C16.9448 20 16.9628 20 16.9808 20C16.9989 20 17.0169 20 17.0349 20C17.0529 20 17.0709 20 17.0889 20C17.1069 20 17.125 20 17.143 20C17.161 20 17.179 20 17.197 20C17.215 20 17.233 20 17.251 20C17.269 20 17.2871 20 17.3051 20C17.3231 20 17.3411 20 17.3591 20C17.3771 20 17.3951 20 17.4131 20C17.4311 20 17.4491 20 17.4671 20C17.4851 20 17.5031 20 17.5211 20C17.5391 20 17.5571 20 17.5751 20C17.5931 20 17.6111 20 17.6291 20C17.6471 20 17.6651 20 17.6831 20C17.7011 20 17.7191 20 17.7371 20C17.7551 20 17.7731 20 17.791 20C17.809 20 17.827 20 17.845 20C17.863 20 17.881 20 17.8989 20C17.9169 20 17.9349 20 17.9529 20C17.9708 20 17.9888 20 18.0068 20C18.0248 20 18.0427 20 18.0607 20C18.0786 20 18.0966 20 18.1146 20C18.1325 20 18.1505 20 18.1684 20C18.1864 20 18.2043 20 18.2223 20C18.2402 20 18.2582 20 18.2761 20C18.2941 20 18.312 20 18.3299 20C18.3479 20 18.3658 20 18.3837 20C18.4017 20 18.4196 20 18.4375 20C18.4554 20 18.4734 20 18.4913 20C18.5092 20 18.5271 20 18.545 20C18.5629 20 18.5808 20 18.5987 20C18.6166 20 18.6345 20 18.6524 20C18.6703 20 18.6882 20 18.7061 20C18.724 20 18.7419 20 18.7597 20C18.7776 20 18.7955 20 18.8134 20C18.8312 20 18.8491 20 18.867 20C18.8848 20 18.9027 20 18.9205 20C18.9384 20 18.9562 20 18.9741 20C18.9919 20 19.0098 20 19.0276 20C19.0454 20 19.0632 20 19.0811 20C19.0989 20 19.1167 20 19.1345 20C19.1523 20 19.1701 20 19.188 20C19.2058 20 19.2236 20 19.2413 20C19.2591 20 19.2769 20 19.2947 20C19.3125 20 19.3303 20 19.348 20C19.3658 20 19.3836 20 19.4013 20C19.4191 20 19.4368 20 19.4546 20C19.4723 20 19.4901 20 19.5078 20C19.5256 20 19.5433 20 19.561 20C19.5787 20 19.5965 20 19.6142 20C19.6319 20 19.6496 20 19.6673 20C19.685 20 19.7027 20 19.7204 20C19.7381 20 19.7557 20 19.7734 20C19.7911 20 19.8088 20 19.8264 20C19.8441 20 19.8617 20 19.8794 20C19.897 20 19.9147 20 19.9323 20C19.9499 20 19.9676 20 19.9852 20C20.0028 20 20.0204 20 20.038 20C20.0556 20 20.0732 20 20.0908 20C20.1084 20 20.126 20 20.1436 20C20.1611 20 20.1787 20 20.1963 20C20.2138 20 20.2314 20 20.2489 20C20.2665 20 20.284 20 20.3016 20C20.3191 20 20.3366 20 20.3541 20C20.3716 20 20.3891 20 20.4066 20C20.4241 20 20.4416 20 20.4591 20C20.4766 20 20.4941 20 20.5115 20C20.529 20 20.5465 20 20.5639 20C20.5814 20 20.5988 20 20.6162 20C20.6337 20 20.6511 20 20.6685 20C20.6859 20 20.7033 20 20.7207 20C20.7381 20 20.7555 20 20.7729 20C20.7903 20 20.8076 20 20.825 20C20.8423 20 20.8597 20 20.877 20C20.8944 20 20.9117 20 20.929 20C20.9464 20 20.9637 20 20.981 20C20.9983 20 21.0156 20 21.0329 20C21.0502 20 21.0674 20 21.0847 20C21.102 20 21.1192 20 21.1365 20C21.1537 20 21.171 20 21.1882 20C21.2054 20 21.2226 20 21.2398 20C21.2571 20 21.2742 20 21.2914 20C21.3086 20 21.3258 20 21.343 20C21.3601 20 21.3773 20 21.3944 20C21.4116 20 21.4287 20 21.4458 20C21.463 20 21.4801 20 21.4972 20C21.5143 20 21.5314 20 21.5485 20C21.5655 20 21.5826 20 21.5997 20C21.6167 20 21.6338 20 21.6508 20C21.6679 20 21.6849 20 21.7019 20C21.7189 20 21.7359 20 21.7529 20C21.7699 20 21.7869 20 21.8038 20C21.8208 20 21.8378 20 21.8547 20C21.8717 20 21.8886 20 21.9055 20C21.9224 20 21.9394 20 21.9563 20C21.9732 20 21.99 20 22.0069 20C22.0238 20 22.0407 20 22.0575 20C22.0744 20 22.0912 20 22.108 20C22.1249 20 22.1417 20 22.1585 20C22.1753 20 22.1921 20 22.2088 20C22.2256 20 22.2424 20 22.2591 20C22.2759 20 22.2926 20 22.3094 20C22.3261 20 22.3428 20 22.3595 20C22.3762 20 22.3929 20 22.4096 20C22.4262 20 22.4429 20 22.4595 20C22.4762 20 22.4928 20 22.5094 20C22.5261 20 22.5427 20 22.5593 20C22.5759 20 22.5925 20 22.609 20C22.6256 20 22.6421 20 22.6587 20C22.6752 20 22.6918 20 22.7083 20C22.7248 20 22.7413 20 22.7578 20C22.7743 20 22.7907 20 22.8072 20C22.8236 20 22.8401 20 22.8565 20C22.8729 20 22.8894 20 22.9058 20C22.9222 20 22.9386 20 22.9549 20C22.9713 20 22.9877 20 23.004 20C23.0203 20 23.0367 20 23.053 20C23.0693 20 23.0856 20 23.1019 20C23.1182 20 23.1344 20 23.1507 20C23.167 20 23.1832 20 23.1994 20C23.2156 20 23.2319 20 23.248 20C23.2642 20 23.2804 20 23.2966 20C23.3128 20 23.3289 20 23.345 20C23.3612 20 23.3773 20 23.3934 20C23.4095 20 23.4256 20 23.4417 20C23.4577 20 23.4738 20 23.4898 20C23.5059 20 23.5219 20 23.5379 20C23.5539 20 23.5699 20 23.5859 20C23.6018 20 23.6178 20 23.6337 20C23.6497 20 23.6656 20 23.6815 20C23.6974 20 23.7133 20 23.7292 20C23.7451 20 23.761 20 23.7768 20C23.7926 20 23.8085 20 23.8243 20C23.8401 20 23.8559 20 23.8717 20C23.8875 20 23.9032 20 23.919 20C23.9347 20 23.9504 20 23.9661 20C23.9819 20 23.9975 20 24.0132 20C24.0289 20 24.0446 20 24.0602 20C24.0758 20 24.0915 20 24.1071 20C24.1227 20 24.1383 20 24.1538 20C24.1694 20 24.185 20 24.2005 20C24.216 20 24.2316 20 24.2471 20C24.2626 20 24.278 20 24.2935 20C24.309 20 24.3244 20 24.3398 20C24.3553 20 24.3707 20 24.3861 20C24.4015 20 24.4168 20 24.4322 20C24.4476 20 24.4629 20 24.4782 20C24.4935 20 24.5088 20 24.5241 20C24.5394 20 24.5547 20 24.5699 20C24.5852 20 24.6004 20 24.6156 20C24.6308 20 24.646 20 24.6611 20C24.6763 20 24.6915 20 24.7066 20C24.7217 20 24.7368 20 24.7519 20C24.767 20 24.7821 20 24.7972 20C24.8122 20 24.8272 20 24.8423 20C24.8573 20 24.8723 20 24.8872 20C24.9022 20 24.9172 20 24.9321 20C24.9471 20 24.962 20 24.9769 20C24.9918 20 25.0066 20 25.0215 20C25.0364 20 25.0512 20 25.066 20C25.0808 20 25.0956 20 25.1104 20C25.1252 20 25.1399 20 25.1547 20C25.1694 20 25.1841 20 25.1988 20C25.2135 20 25.2282 20 25.2428 20C25.2575 20 25.2721 20 25.2867 20C25.3013 20 25.3159 20 25.3305 20C25.3451 20 25.3596 20 25.3742 20C25.3887 20 25.4032 20 25.4177 20C25.4322 20 25.4466 20 25.4611 20C25.4755 20 25.4899 20 25.5043 20C25.5187 20 25.5331 20 25.5475 20C25.5618 20 25.5762 20 25.5905 20C25.6048 20 25.6191 20 25.6334 20C25.6476 20 25.6619 20 25.6761 20C25.6903 20 25.7045 20 25.7187 20C25.7329 20 25.7471 20 25.7612 20C25.7754 20 25.7895 20 25.8036 20C25.8177 20 25.8317 20 25.8458 20C25.8598 20 25.8739 20 25.8879 20C25.9019 20 25.9159 20 25.9298 20C25.9438 20 25.9577 20 25.9716 20C25.9855 20 25.9994 20 26.0133 20C26.0272 20 26.041 20 26.0548 20C26.0687 20 26.0825 20 26.0962 20C26.11 20 26.1238 20 26.1375 20C26.1512 20 26.1649 20 26.1786 20C26.1923 20 26.206 20 26.2196 20C26.2332 20 26.2469 20 26.2604 20C26.274 20 26.2876 20 26.3011 20C26.3147 20 26.3282 20 26.3417 20C26.3552 20 26.3687 20 26.3821 20C26.3955 20 26.409 20 26.4224 20C26.4358 20 26.4491 20 26.4625 20C26.4758 20 26.4892 20 26.5025 20C26.5158 20 26.529 20 26.5423 20C26.5555 20 26.5688 20 26.582 20C26.5952 20 26.6083 20 26.6215 20C26.6347 20 26.6478 20 26.6609 20C26.674 20 26.6871 20 26.7001 20C26.7132 20 26.7262 20 26.7392 20C26.7522 20 26.7652 20 26.7781 20C26.7911 20 26.804 20 26.8169 20C26.8298 20 26.8427 20 26.8555 20C26.8684 20 26.8812 20 26.894 20C26.9068 20 26.9196 20 26.9323 20C26.9451 20 26.9578 20 26.9705 20C26.9832 20 26.9958 20 27.0085 20C27.0211 20 27.0337 20 27.0463 20C27.0589 20 27.0715 20 27.084 20C27.0966 20 27.1091 20 27.1216 20C27.134 20 27.1465 20 27.1589 20C27.1714 20 27.1838 20 27.1962 20C27.2085 20 27.2209 20 27.2332 20C27.2455 20 27.2578 20 27.2701 20C27.2824 20 27.2946 20 27.3068 20C27.319 20 27.3312 20 27.3434 20C27.3556 20 27.3677 20 27.3798 20C27.3919 20 27.404 20 27.416 20C27.4281 20 27.4401 20 27.4521 20C27.4641 20 27.4761 20 27.488 20C27.5 20 27.5119 20 27.5238 20C27.5357 20 27.5475 20 27.5594 20C27.5712 20 27.583 20 27.5948 20C27.6065 20 27.6183 20 27.63 20C27.6417 20 27.6534 20 27.6651 20C27.6767 20 27.6884 20 27.7 20C27.7116 20 27.7232 20 27.7347 20C27.7462 20 27.7578 20 27.7693 20C27.7807 20 27.7922 20 27.8036 20C27.8151 20 27.8265 20 27.8378 20C27.8492 20 27.8606 20 27.8719 20C27.8832 20 27.8945 20 27.9057 20C27.917 20 27.9282 20 27.9394 20C27.9506 20 27.9618 20 27.9729 20C27.9841 20 27.9952 20 28.0063 20C28.0173 20 28.0284 20 28.0394 20C28.0504 20 28.0614 20 28.0724 20C28.0834 20 28.0943 20 28.1052 20C28.1161 20 28.127 20 28.1378 20C28.1486 20 28.1595 20 28.1702 20C28.181 20 28.1918 20 28.2025 20C28.2132 20 28.2239 20 28.2346 20C28.2452 20 28.2558 20 28.2664 20C28.277 20 28.2876 20 28.2981 20C28.3087 20 28.3192 20 28.3297 20C28.3401 20 28.3506 20 28.361 20C28.3714 20 28.3818 20 28.3921 20C28.4025 20 28.4128 20 28.4231 20C28.4334 20 28.4436 20 28.4539 20C28.4641 20 28.4743 20 28.4845 20C28.4946 20 28.5047 20 28.5148 20C28.5249 20 28.535 20 28.545 20C28.5551 20 28.5651 20 28.5751 20C28.585 20 28.595 20 28.6049 20C28.6148 20 28.6247 20 28.6345 20C28.6443 20 28.6542 20 28.6639 20C28.6737 20 28.6835 20 28.6932 20C28.7029 20 28.7126 20 28.7222 20C28.7319 20 28.7415 20 28.7511 20C28.7607 20 28.7702 20 28.7797 20C28.7892 20 28.7987 20 28.8082 20C28.8176 20 28.8271 20 28.8364 20C28.8458 20 28.8552 20 28.8645 20C28.8738 20 28.8831 20 28.8924 20C28.9016 20 28.9108 20 28.92 20C28.9292 20 28.9384 20 28.9475 20C28.9566 20 28.9657 20 28.9747 20C28.9838 20 28.9928 20 29.0018 20C29.0108 20 29.0197 20 29.0286 20C29.0376 20 29.0464 20 29.0553 20C29.0641 20 29.073 20 29.0817 20C29.0905 20 29.0993 20 29.108 20C29.1167 20 29.1254 20 29.134 20C29.1426 20 29.1513 20 29.1598 20C29.1684 20 29.1769 20 29.1854 20C29.1939 20 29.2024 20 29.2109 20C29.2193 20 29.2277 20 29.2361 20C29.2444 20 29.2527 20 29.261 20C29.2693 20 29.2776 20 29.2858 20C29.294 20 29.3022 20 29.3104 20C29.3185 20 29.3267 20 29.3347 20C29.3428 20 29.3509 20 29.3589 20C29.3669 20 29.3749 20 29.3828 20C29.3908 20 29.3987 20 29.4065 20C29.4144 20 29.4222 20 29.43 20C29.4378 20 29.4456 20 29.4533 20C29.461 20 29.4687 20 29.4764 20C29.484 20 29.4916 20 29.4992 20C29.5068 20 29.5143 20 29.5219 20C29.5294 20 29.5368 20 29.5443 20C29.5517 20 29.5591 20 29.5665 20C29.5738 20 29.5811 20 29.5884 20C29.5957 20 29.603 20 29.6102 20C29.6174 20 29.6246 20 29.6317 20C29.6388 20 29.6459 20 29.653 20C29.6601 20 29.6671 20 29.6741 20C29.6811 20 29.688 20 29.6949 20C29.7018 20 29.7087 20 29.7156 20C29.7224 20 29.7292 20 29.736 20C29.7427 20 29.7495 20 29.7561 20C29.7628 20 29.7695 20 29.7761 20C29.7827 20 29.7893 20 29.7958 20C29.8023 20 29.8088 20 29.8153 20C29.8218 20 29.8282 20 29.8346 20C29.841 20 29.8473 20 29.8536 20C29.8599 20 29.8662 20 29.8724 20C29.8786 20 29.8848 20 29.891 20C29.8971 20 29.9032 20 29.9093 20C29.9154 20 29.9214 20 29.9274 20C29.9334 20 29.9394 20 29.9453 20C29.9512 20 29.9571 20 29.9629 20C29.9687 20 29.9745 20 29.9803 20C29.9861 20 29.9918 20 29.9975 20C30.0031 20 30.0088 20 30.0144 20C30.02 20 30.0255 20 30.0311 20C30.0366 20 30.0421 20 30.0475 20C30.053 20 30.0584 20 30.0637 20C30.0691 20 30.0744 20 30.0797 20C30.085 20 30.0902 20 30.0954 20C30.1006 20 30.1058 20 30.1109 20C30.116 20 30.1211 20 30.1261 20C30.1312 20 30.1362 20 30.1411 20C30.1461 20 30.151 20 30.1559 20C30.1608 20 30.1656 20 30.1704 20C30.1752 20 30.1799 20 30.1846 20C30.1894 20 30.194 20 30.1987 20C30.2033 20 30.2079 20 30.2124 20C30.217 20 30.2215 20 30.2259 20C30.2304 20 30.2348 20 30.2392 20C30.2436 20 30.2479 20 30.2522 20C30.2565 20 30.2608 20 30.265 20C30.2692 20 30.2734 20 30.2775 20C30.2817 20 30.2857 20 30.2898 20C30.2938 20 30.2978 20 30.3018 20C30.3058 20 30.3097 20 30.3136 20C30.3174 20 30.3213 20 30.3251 20C30.3289 20 30.3326 20 30.3363 20C30.34 20 30.3437 20 30.3473 20C30.3509 20 30.3545 20 30.3581 20C30.3616 20 30.3651 20 30.3685 20C30.372 20 30.3754 20 30.3788 20C30.3821 20 30.3855 20 30.3887 20C30.392 20 30.3952 20 30.3984 20C30.4016 20 30.4048 20 30.4079 20C30.411 20 30.414 20 30.4171 20C30.4201 20 30.4231 20 30.426 20C30.4289 20 30.4318 20 30.4346 20C30.4375 20 30.4403 20 30.443 20C30.4458 20 30.4485 20 30.4512 20C30.4538 20 30.4565 20 30.459 20C30.4616 20 30.4642 20 30.4666 20C30.4691 20 30.4716 20 30.474 20C30.4764 20 30.4787 20 30.4811 20C30.4834 20 30.4856 20 30.4879 20C30.4901 20 30.4923 20 30.4944 20C30.4965 20 30.4986 20 30.5007 20C30.5027 20 30.5047 20 30.5066 20C30.5086 20 30.5105 20 30.5124 20C30.5142 20 30.516 20 30.5178 20C30.5196 20 30.5213 20 30.523 20C30.5247 20 30.5263 20 30.5279 20C30.5295 20 30.531 20 30.5325 20C30.534 20 30.5355 20 30.5369 20C30.5383 20 30.5396 20 30.541 20C30.5423 20 30.5435 20 30.5448 20C30.546 20 30.5472 20 30.5483 20C30.5494 20 30.5505 20 30.5515 20C30.5526 20 30.5536 20 30.5545 20C30.5555 20 30.5564 20 30.5572 20C30.5581 20 30.5589 20 30.5596 20C30.5604 20 30.5611 20 30.5617 20C30.5624 20 30.563 20 30.5636 20C30.5642 20 30.5647 20 30.5652 20C30.5656 20 30.5661 20 30.5664 20C30.5668 20 30.5672 20 30.5674 20C30.5677 20 30.568 20 30.5682 20C30.5684 20 30.5685 20 30.5686 20C30.5687 20 30.5687 20 30.5687 10C30.5687 0 30.5687 0 30.5686 0C30.5685 0 30.5684 0 30.5682 0C30.568 0 30.5677 0 30.5674 0C30.5672 0 30.5668 0 30.5664 0C30.5661 0 30.5656 0 30.5652 0C30.5647 0 30.5642 0 30.5636 0C30.563 0 30.5624 0 30.5617 0C30.5611 0 30.5604 0 30.5596 0C30.5589 0 30.5581 0 30.5572 0C30.5564 0 30.5555 0 30.5545 0C30.5536 0 30.5526 0 30.5515 0C30.5505 0 30.5494 0 30.5483 0C30.5472 0 30.546 0 30.5448 0C30.5435 0 30.5423 0 30.541 0C30.5396 0 30.5383 0 30.5369 0C30.5355 0 30.534 0 30.5325 0C30.531 0 30.5295 0 30.5279 0C30.5263 0 30.5247 0 30.523 0C30.5213 0 30.5196 0 30.5178 0C30.516 0 30.5142 0 30.5124 0C30.5105 0 30.5086 0 30.5066 0C30.5047 0 30.5027 0 30.5007 0C30.4986 0 30.4965 0 30.4944 0C30.4923 0 30.4901 0 30.4879 0C30.4856 0 30.4834 0 30.4811 0C30.4787 0 30.4764 0 30.474 0C30.4716 0 30.4691 0 30.4666 0C30.4642 0 30.4616 0 30.459 0C30.4565 0 30.4538 0 30.4512 0C30.4485 0 30.4458 0 30.443 0C30.4403 0 30.4375 0 30.4346 0C30.4318 0 30.4289 0 30.426 0C30.4231 0 30.4201 0 30.4171 0C30.414 0 30.411 0 30.4079 0C30.4048 0 30.4016 0 30.3984 0C30.3952 0 30.392 0 30.3887 0C30.3855 0 30.3821 0 30.3788 0C30.3754 0 30.372 0 30.3685 0C30.3651 0 30.3616 0 30.3581 0C30.3545 0 30.3509 0 30.3473 0C30.3437 0 30.34 0 30.3363 0C30.3326 0 30.3289 0 30.3251 0C30.3213 0 30.3174 0 30.3136 0C30.3097 0 30.3058 0 30.3018 0C30.2978 0 30.2938 0 30.2898 0C30.2857 0 30.2817 0 30.2775 0C30.2734 0 30.2692 0 30.265 0C30.2608 0 30.2565 0 30.2522 0C30.2479 0 30.2436 0 30.2392 0C30.2348 0 30.2304 0 30.2259 0C30.2215 0 30.217 0 30.2124 0C30.2079 0 30.2033 0 30.1987 0C30.194 0 30.1894 0 30.1846 0C30.1799 0 30.1752 0 30.1704 0C30.1656 0 30.1608 0 30.1559 0C30.151 0 30.1461 0 30.1411 0C30.1362 0 30.1312 0 30.1261 0C30.1211 0 30.116 0 30.1109 0C30.1058 0 30.1006 0 30.0954 0C30.0902 0 30.085 0 30.0797 0C30.0744 0 30.0691 0 30.0637 0C30.0584 0 30.053 0 30.0475 0C30.0421 0 30.0366 0 30.0311 0C30.0255 0 30.02 0 30.0144 0C30.0088 0 30.0031 0 29.9975 0C29.9918 0 29.9861 0 29.9803 0C29.9745 0 29.9687 0 29.9629 0C29.9571 0 29.9512 0 29.9453 0C29.9394 0 29.9334 0 29.9274 0C29.9214 0 29.9154 0 29.9093 0C29.9032 0 29.8971 0 29.891 0C29.8848 0 29.8786 0 29.8724 0C29.8662 0 29.8599 0 29.8536 0C29.8473 0 29.841 0 29.8346 0C29.8282 0 29.8218 0 29.8153 0C29.8088 0 29.8023 0 29.7958 0C29.7893 0 29.7827 0 29.7761 0C29.7695 0 29.7628 0 29.7561 0C29.7495 0 29.7427 0 29.736 0C29.7292 0 29.7224 0 29.7156 0C29.7087 0 29.7018 0 29.6949 0C29.688 0 29.6811 0 29.6741 0C29.6671 0 29.6601 0 29.653 0C29.6459 0 29.6388 0 29.6317 0C29.6246 0 29.6174 0 29.6102 0C29.603 0 29.5957 0 29.5884 0C29.5811 0 29.5738 0 29.5665 0C29.5591 0 29.5517 0 29.5443 0C29.5368 0 29.5294 0 29.5219 0C29.5143 0 29.5068 0 29.4992 0C29.4916 0 29.484 0 29.4764 0C29.4687 0 29.461 0 29.4533 0C29.4456 0 29.4378 0 29.43 0C29.4222 0 29.4144 0 29.4065 0C29.3987 0 29.3908 0 29.3828 0C29.3749 0 29.3669 0 29.3589 0C29.3509 0 29.3428 0 29.3347 0C29.3267 0 29.3185 0 29.3104 0C29.3022 0 29.294 0 29.2858 0C29.2776 0 29.2693 0 29.261 0C29.2527 0 29.2444 0 29.2361 0C29.2277 0 29.2193 0 29.2109 0C29.2024 0 29.1939 0 29.1854 0C29.1769 0 29.1684 0 29.1598 0C29.1513 0 29.1426 0 29.134 0C29.1254 0 29.1167 0 29.108 0C29.0993 0 29.0905 0 29.0817 0C29.073 0 29.0641 0 29.0553 0C29.0464 0 29.0376 0 29.0286 0C29.0197 0 29.0108 0 29.0018 0C28.9928 0 28.9838 0 28.9747 0C28.9657 0 28.9566 0 28.9475 0C28.9384 0 28.9292 0 28.92 0C28.9108 0 28.9016 0 28.8924 0C28.8831 0 28.8738 0 28.8645 0C28.8552 0 28.8458 0 28.8364 0C28.8271 0 28.8176 0 28.8082 0C28.7987 0 28.7892 0 28.7797 0C28.7702 0 28.7607 0 28.7511 0C28.7415 0 28.7319 0 28.7222 0C28.7126 0 28.7029 0 28.6932 0C28.6835 0 28.6737 0 28.6639 0C28.6542 0 28.6443 0 28.6345 0C28.6247 0 28.6148 0 28.6049 0C28.595 0 28.585 0 28.5751 0C28.5651 0 28.5551 0 28.545 0C28.535 0 28.5249 0 28.5148 0C28.5047 0 28.4946 0 28.4845 0C28.4743 0 28.4641 0 28.4539 0C28.4436 0 28.4334 0 28.4231 0C28.4128 0 28.4025 0 28.3921 0C28.3818 0 28.3714 0 28.361 0C28.3506 0 28.3401 0 28.3297 0C28.3192 0 28.3087 0 28.2981 0C28.2876 0 28.277 0 28.2664 0C28.2558 0 28.2452 0 28.2346 0C28.2239 0 28.2132 0 28.2025 0C28.1918 0 28.181 0 28.1702 0C28.1595 0 28.1486 0 28.1378 0C28.127 0 28.1161 0 28.1052 0C28.0943 0 28.0834 0 28.0724 0C28.0614 0 28.0504 0 28.0394 0C28.0284 0 28.0173 0 28.0063 0C27.9952 0 27.9841 0 27.9729 0C27.9618 0 27.9506 0 27.9394 0C27.9282 0 27.917 0 27.9057 0C27.8945 0 27.8832 0 27.8719 0C27.8606 0 27.8492 0 27.8378 0C27.8265 0 27.8151 0 27.8036 0C27.7922 0 27.7807 0 27.7693 0C27.7578 0 27.7462 0 27.7347 0C27.7232 0 27.7116 0 27.7 0C27.6884 0 27.6767 0 27.6651 0C27.6534 0 27.6417 0 27.63 0C27.6183 0 27.6065 0 27.5948 0C27.583 0 27.5712 0 27.5594 0C27.5475 0 27.5357 0 27.5238 0C27.5119 0 27.5 0 27.488 0C27.4761 0 27.4641 0 27.4521 0C27.4401 0 27.4281 0 27.416 0C27.404 0 27.3919 0 27.3798 0C27.3677 0 27.3556 0 27.3434 0C27.3312 0 27.319 0 27.3068 0C27.2946 0 27.2824 0 27.2701 0C27.2578 0 27.2455 0 27.2332 0C27.2209 0 27.2085 0 27.1962 0C27.1838 0 27.1714 0 27.1589 0C27.1465 0 27.134 0 27.1216 0C27.1091 0 27.0966 0 27.084 0C27.0715 0 27.0589 0 27.0463 0C27.0337 0 27.0211 0 27.0085 0C26.9958 0 26.9832 0 26.9705 0C26.9578 0 26.9451 0 26.9323 0C26.9196 0 26.9068 0 26.894 0C26.8812 0 26.8684 0 26.8555 0C26.8427 0 26.8298 0 26.8169 0C26.804 0 26.7911 0 26.7781 0C26.7652 0 26.7522 0 26.7392 0C26.7262 0 26.7132 0 26.7001 0C26.6871 0 26.674 0 26.6609 0C26.6478 0 26.6347 0 26.6215 0C26.6083 0 26.5952 0 26.582 0C26.5688 0 26.5555 0 26.5423 0C26.529 0 26.5158 0 26.5025 0C26.4892 0 26.4758 0 26.4625 0C26.4491 0 26.4358 0 26.4224 0C26.409 0 26.3955 0 26.3821 0C26.3687 0 26.3552 0 26.3417 0C26.3282 0 26.3147 0 26.3011 0C26.2876 0 26.274 0 26.2604 0C26.2469 0 26.2332 0 26.2196 0C26.206 0 26.1923 0 26.1786 0C26.1649 0 26.1512 0 26.1375 0C26.1238 0 26.11 0 26.0962 0C26.0825 0 26.0687 0 26.0548 0C26.041 0 26.0272 0 26.0133 0C25.9994 0 25.9855 0 25.9716 0C25.9577 0 25.9438 0 25.9298 0C25.9159 0 25.9019 0 25.8879 0C25.8739 0 25.8598 0 25.8458 0C25.8317 0 25.8177 0 25.8036 0C25.7895 0 25.7754 0 25.7612 0C25.7471 0 25.7329 0 25.7187 0C25.7045 0 25.6903 0 25.6761 0C25.6619 0 25.6476 0 25.6334 0C25.6191 0 25.6048 0 25.5905 0C25.5762 0 25.5618 0 25.5475 0C25.5331 0 25.5187 0 25.5043 0C25.4899 0 25.4755 0 25.4611 0C25.4466 0 25.4322 0 25.4177 0C25.4032 0 25.3887 0 25.3742 0C25.3596 0 25.3451 0 25.3305 0C25.3159 0 25.3013 0 25.2867 0C25.2721 0 25.2575 0 25.2428 0C25.2282 0 25.2135 0 25.1988 0C25.1841 0 25.1694 0 25.1547 0C25.1399 0 25.1252 0 25.1104 0C25.0956 0 25.0808 0 25.066 0C25.0512 0 25.0364 0 25.0215 0C25.0066 0 24.9918 0 24.9769 0C24.962 0 24.9471 0 24.9321 0C24.9172 0 24.9022 0 24.8872 0C24.8723 0 24.8573 0 24.8423 0C24.8272 0 24.8122 0 24.7972 0C24.7821 0 24.767 0 24.7519 0C24.7368 0 24.7217 0 24.7066 0C24.6915 0 24.6763 0 24.6611 0C24.646 0 24.6308 0 24.6156 0C24.6004 0 24.5852 0 24.5699 0C24.5547 0 24.5394 0 24.5241 0C24.5088 0 24.4935 0 24.4782 0C24.4629 0 24.4476 0 24.4322 0C24.4168 0 24.4015 0 24.3861 0C24.3707 0 24.3553 0 24.3398 0C24.3244 0 24.309 0 24.2935 0C24.278 0 24.2626 0 24.2471 0C24.2316 0 24.216 0 24.2005 0C24.185 0 24.1694 0 24.1538 0C24.1383 0 24.1227 0 24.1071 0C24.0915 0 24.0758 0 24.0602 0C24.0446 0 24.0289 0 24.0132 0C23.9975 0 23.9819 0 23.9661 0C23.9504 0 23.9347 0 23.919 0C23.9032 0 23.8875 0 23.8717 0C23.8559 0 23.8401 0 23.8243 0C23.8085 0 23.7926 0 23.7768 0C23.761 0 23.7451 0 23.7292 0C23.7133 0 23.6974 0 23.6815 0C23.6656 0 23.6497 0 23.6337 0C23.6178 0 23.6018 0 23.5859 0C23.5699 0 23.5539 0 23.5379 0C23.5219 0 23.5059 0 23.4898 0C23.4738 0 23.4577 0 23.4417 0C23.4256 0 23.4095 0 23.3934 0C23.3773 0 23.3612 0 23.345 0C23.3289 0 23.3128 0 23.2966 0C23.2804 0 23.2642 0 23.248 0C23.2319 0 23.2156 0 23.1994 0C23.1832 0 23.167 0 23.1507 0C23.1344 0 23.1182 0 23.1019 0C23.0856 0 23.0693 0 23.053 0C23.0367 0 23.0203 0 23.004 0C22.9877 0 22.9713 0 22.9549 0C22.9386 0 22.9222 0 22.9058 0C22.8894 0 22.8729 0 22.8565 0C22.8401 0 22.8236 0 22.8072 0C22.7907 0 22.7743 0 22.7578 0C22.7413 0 22.7248 0 22.7083 0C22.6918 0 22.6752 0 22.6587 0C22.6421 0 22.6256 0 22.609 0C22.5925 0 22.5759 0 22.5593 0C22.5427 0 22.5261 0 22.5094 0C22.4928 0 22.4762 0 22.4595 0C22.4429 0 22.4262 0 22.4096 0C22.3929 0 22.3762 0 22.3595 0C22.3428 0 22.3261 0 22.3094 0C22.2926 0 22.2759 0 22.2591 0C22.2424 0 22.2256 0 22.2088 0C22.1921 0 22.1753 0 22.1585 0C22.1417 0 22.1249 0 22.108 0C22.0912 0 22.0744 0 22.0575 0C22.0407 0 22.0238 0 22.0069 0C21.99 0 21.9732 0 21.9563 0C21.9394 0 21.9224 0 21.9055 0C21.8886 0 21.8717 0 21.8547 0C21.8378 0 21.8208 0 21.8038 0C21.7869 0 21.7699 0 21.7529 0C21.7359 0 21.7189 0 21.7019 0C21.6849 0 21.6679 0 21.6508 0C21.6338 0 21.6167 0 21.5997 0C21.5826 0 21.5655 0 21.5485 0C21.5314 0 21.5143 0 21.4972 0C21.4801 0 21.463 0 21.4458 0C21.4287 0 21.4116 0 21.3944 0C21.3773 0 21.3601 0 21.343 0C21.3258 0 21.3086 0 21.2914 0C21.2742 0 21.2571 0 21.2398 0C21.2226 0 21.2054 0 21.1882 0C21.171 0 21.1537 0 21.1365 0C21.1192 0 21.102 0 21.0847 0C21.0674 0 21.0502 0 21.0329 0C21.0156 0 20.9983 0 20.981 0C20.9637 0 20.9464 0 20.929 0C20.9117 0 20.8944 0 20.877 0C20.8597 0 20.8423 0 20.825 0C20.8076 0 20.7903 0 20.7729 0C20.7555 0 20.7381 0 20.7207 0C20.7033 0 20.6859 0 20.6685 0C20.6511 0 20.6337 0 20.6162 0C20.5988 0 20.5814 0 20.5639 0C20.5465 0 20.529 0 20.5115 0C20.4941 0 20.4766 0 20.4591 0C20.4416 0 20.4241 0 20.4066 0C20.3891 0 20.3716 0 20.3541 0C20.3366 0 20.3191 0 20.3016 0C20.284 0 20.2665 0 20.2489 0C20.2314 0 20.2138 0 20.1963 0C20.1787 0 20.1611 0 20.1436 0C20.126 0 20.1084 0 20.0908 0C20.0732 0 20.0556 0 20.038 0C20.0204 0 20.0028 0 19.9852 0C19.9676 0 19.9499 0 19.9323 0C19.9147 0 19.897 0 19.8794 0C19.8617 0 19.8441 0 19.8264 0C19.8088 0 19.7911 0 19.7734 0C19.7557 0 19.7381 0 19.7204 0C19.7027 0 19.685 0 19.6673 0C19.6496 0 19.6319 0 19.6142 0C19.5965 0 19.5787 0 19.561 0C19.5433 0 19.5256 0 19.5078 0C19.4901 0 19.4723 0 19.4546 0C19.4368 0 19.4191 0 19.4013 0C19.3836 0 19.3658 0 19.348 0C19.3303 0 19.3125 0 19.2947 0C19.2769 0 19.2591 0 19.2413 0C19.2236 0 19.2058 0 19.188 0C19.1701 0 19.1523 0 19.1345 0C19.1167 0 19.0989 0 19.0811 0C19.0632 0 19.0454 0 19.0276 0C19.0098 0 18.9919 0 18.9741 0C18.9562 0 18.9384 0 18.9205 0C18.9027 0 18.8848 0 18.867 0C18.8491 0 18.8312 0 18.8134 0C18.7955 0 18.7776 0 18.7597 0C18.7419 0 18.724 0 18.7061 0C18.6882 0 18.6703 0 18.6524 0C18.6345 0 18.6166 0 18.5987 0C18.5808 0 18.5629 0 18.545 0C18.5271 0 18.5092 0 18.4913 0C18.4734 0 18.4554 0 18.4375 0C18.4196 0 18.4017 0 18.3837 0C18.3658 0 18.3479 0 18.3299 0C18.312 0 18.2941 0 18.2761 0C18.2582 0 18.2402 0 18.2223 0C18.2043 0 18.1864 0 18.1684 0C18.1505 0 18.1325 0 18.1146 0C18.0966 0 18.0786 0 18.0607 0C18.0427 0 18.0248 0 18.0068 0C17.9888 0 17.9708 0 17.9529 0C17.9349 0 17.9169 0 17.8989 0C17.881 0 17.863 0 17.845 0C17.827 0 17.809 0 17.791 0C17.7731 0 17.7551 0 17.7371 0C17.7191 0 17.7011 0 17.6831 0C17.6651 0 17.6471 0 17.6291 0C17.6111 0 17.5931 0 17.5751 0C17.5571 0 17.5391 0 17.5211 0C17.5031 0 17.4851 0 17.4671 0C17.4491 0 17.4311 0 17.4131 0C17.3951 0 17.3771 0 17.3591 0C17.3411 0 17.3231 0 17.3051 0C17.2871 0 17.269 0 17.251 0C17.233 0 17.215 0 17.197 0C17.179 0 17.161 0 17.143 0C17.125 0 17.1069 0 17.0889 0C17.0709 0 17.0529 0 17.0349 0C17.0169 0 16.9989 0 16.9808 0C16.9628 0 16.9448 0 16.9268 0C16.9088 0 16.8908 0 16.8728 0C16.8548 0 16.8367 0 16.8187 0C16.8007 0 16.7827 0 16.7647 0C16.7467 0 16.7287 0 16.7107 0C16.6927 0 16.6746 0 16.6566 0C16.6386 0 16.6206 0 16.6026 0C16.5846 0 16.5666 0 16.5486 0C16.5306 0 16.5126 0 16.4946 0C16.4766 0 16.4586 0 16.4406 0C16.4226 0 16.4046 0 16.3866 0C16.3686 0 16.3506 0 16.3326 0C16.3146 0 16.2966 0 16.2786 0C16.2606 0 16.2426 0 16.2247 0C16.2067 0 16.1887 0 16.1707 0C16.1527 0 16.1347 0 16.1168 0C16.0988 0 16.0808 0 16.0628 0C16.0448 0 16.0269 0 16.0089 0C15.9909 0 15.973 0 15.955 0C15.937 0 15.9191 0 15.9011 0C15.8831 0 15.8652 0 15.8472 0C15.8293 0 15.8113 0 15.7934 0C15.7754 0 15.7575 0 15.7395 0C15.7216 0 15.7036 0 15.6857 0C15.6678 0 15.6498 0 15.6319 0C15.614 0 15.596 0 15.5781 0C15.5602 0 15.5423 0 15.5243 0C15.5064 0 15.4885 0 15.4706 0C15.4527 0 15.4348 0 15.4169 0C15.399 0 15.3811 0 15.3632 0C15.3453 0 15.3274 0 15.3095 0C15.2916 0 15.2737 0 15.2558 0C15.238 0 15.2201 0 15.2022 0C15.1843 0 15.1665 0 15.1486 0C15.1307 0 15.1129 0 15.095 0C15.0772 0 15.0593 0 15.0415 0C15.0236 0 15.0058 0 14.988 0C14.9701 0 14.9523 0 14.9345 0C14.9166 0 14.8988 0 14.881 0C14.8632 0 14.8454 0 14.8276 0C14.8098 0 14.7919 0 14.7742 0C14.7564 0 14.7386 0 14.7208 0C14.703 0 14.6852 0 14.6674 0C14.6497 0 14.6319 0 14.6141 0C14.5964 0 14.5786 0 14.5609 0C14.5431 0 14.5254 0 14.5076 0C14.4899 0 14.4721 0 14.4544 0C14.4367 0 14.419 0 14.4012 0C14.3835 0 14.3658 0 14.3481 0C14.3304 0 14.3127 0 14.295 0C14.2773 0 14.2596 0 14.242 0C14.2243 0 14.2066 0 14.1889 0C14.1713 0 14.1536 0 14.136 0C14.1183 0 14.1007 0 14.083 0C14.0654 0 14.0478 0 14.0301 0C14.0125 0 13.9949 0 13.9773 0C13.9597 0 13.9421 0 13.9245 0C13.9069 0 13.8893 0 13.8717 0C13.8541 0 13.8365 0 13.819 0C13.8014 0 13.7838 0 13.7663 0C13.7487 0 13.7312 0 13.7137 0C13.6961 0 13.6786 0 13.6611 0C13.6436 0 13.626 0 13.6085 0C13.591 0 13.5735 0 13.5561 0C13.5386 0 13.5211 0 13.5036 0C13.4861 0 13.4687 0 13.4512 0C13.4338 0 13.4163 0 13.3989 0C13.3814 0 13.364 0 13.3466 0C13.3292 0 13.3118 0 13.2944 0C13.277 0 13.2596 0 13.2422 0C13.2248 0 13.2074 0 13.19 0C13.1727 0 13.1553 0 13.138 0C13.1206 0 13.1033 0 13.0859 0C13.0686 0 13.0513 0 13.034 0C13.0167 0 12.9994 0 12.9821 0C12.9648 0 12.9475 0 12.9302 0C12.913 0 12.8957 0 12.8784 0C12.8612 0 12.8439 0 12.8267 0C12.8095 0 12.7922 0 12.775 0C12.7578 0 12.7406 0 12.7234 0C12.7062 0 12.689 0 12.6719 0C12.6547 0 12.6375 0 12.6204 0C12.6032 0 12.5861 0 12.5689 0C12.5518 0 12.5347 0 12.5176 0C12.5005 0 12.4834 0 12.4663 0C12.4492 0 12.4321 0 12.415 0C12.398 0 12.3809 0 12.3639 0C12.3468 0 12.3298 0 12.3128 0C12.2957 0 12.2787 0 12.2617 0C12.2447 0 12.2277 0 12.2108 0C12.1938 0 12.1768 0 12.1599 0C12.1429 0 12.126 0 12.109 0C12.0921 0 12.0752 0 12.0583 0C12.0414 0 12.0245 0 12.0076 0C11.9907 0 11.9738 0 11.957 0C11.9401 0 11.9233 0 11.9064 0C11.8896 0 11.8728 0 11.856 0C11.8392 0 11.8224 0 11.8056 0C11.7888 0 11.772 0 11.7552 0C11.7385 0 11.7217 0 11.705 0C11.6883 0 11.6715 0 11.6548 0C11.6381 0 11.6214 0 11.6047 0C11.5881 0 11.5714 0 11.5547 0C11.5381 0 11.5214 0 11.5048 0C11.4882 0 11.4715 0 11.4549 0C11.4383 0 11.4217 0 11.4052 0C11.3886 0 11.372 0 11.3555 0C11.3389 0 11.3224 0 11.3059 0C11.2893 0 11.2728 0 11.2563 0C11.2398 0 11.2233 0 11.2069 0C11.1904 0 11.174 0 11.1575 0C11.1411 0 11.1246 0 11.1082 0C11.0918 0 11.0754 0 11.059 0C11.0427 0 11.0263 0 11.0099 0C10.9936 0 10.9772 0 10.9609 0C10.9446 0 10.9283 0 10.912 0C10.8957 0 10.8794 0 10.8631 0C10.8469 0 10.8306 0 10.8144 0C10.7982 0 10.7819 0 10.7657 0C10.7495 0 10.7333 0 10.7172 0C10.701 0 10.6848 0 10.6687 0C10.6525 0 10.6364 0 10.6203 0C10.6042 0 10.5881 0 10.572 0C10.5559 0 10.5398 0 10.5238 0C10.5077 0 10.4917 0 10.4757 0C10.4597 0 10.4437 0 10.4277 0C10.4117 0 10.3957 0 10.3798 0C10.3638 0 10.3479 0 10.3319 0C10.316 0 10.3001 0 10.2842 0C10.2683 0 10.2525 0 10.2366 0C10.2207 0 10.2049 0 10.1891 0C10.1733 0 10.1574 0 10.1417 0C10.1259 0 10.1101 0 10.0943 0C10.0786 0 10.0628 0 10.0471 0C10.0314 0 10.0157 0 10 0V20ZM20.7632 11.9626L34.5443 80.8164L54.1553 76.8913L40.3743 8.03743L20.7632 11.9626ZM34.5414 80.802C35.4688 85.4714 38.0091 89.6659 41.7174 92.6511L54.2588 77.0718C54.2068 77.03 54.1712 76.9711 54.1582 76.9057L34.5414 80.802ZM41.7174 92.6511C45.4258 95.6363 50.066 97.2222 54.8258 97.1309L54.4426 77.1346C54.3758 77.1359 54.3108 77.1137 54.2588 77.0718L41.7174 92.6511ZM54.6342 97.1328H104.616V77.1328H54.6342V97.1328ZM104.425 97.1309C109.184 97.2222 113.825 95.6364 117.533 92.6511L104.992 77.0718C104.94 77.1137 104.875 77.1359 104.808 77.1346L104.425 97.1309ZM117.533 92.6511C121.241 89.6659 123.781 85.4714 124.709 80.802L105.092 76.9057C105.079 76.9712 105.044 77.03 104.992 77.0718L117.533 92.6511ZM124.724 80.7271L132.951 37.5842L113.305 33.8377L105.078 76.9806L124.724 80.7271ZM123.128 35.7109C123.128 25.7109 123.128 25.7109 123.127 25.7109C123.127 25.7109 123.126 25.7109 123.126 25.7109C123.125 25.7109 123.124 25.7109 123.123 25.7109C123.121 25.7109 123.12 25.7109 123.118 25.7109C123.117 25.7109 123.115 25.7109 123.113 25.7109C123.111 25.7109 123.109 25.7109 123.106 25.7109C123.104 25.7109 123.101 25.7109 123.098 25.7109C123.096 25.7109 123.093 25.7109 123.089 25.7109C123.086 25.7109 123.083 25.7109 123.079 25.7109C123.075 25.7109 123.072 25.7109 123.068 25.7109C123.064 25.7109 123.059 25.7109 123.055 25.7109C123.051 25.7109 123.046 25.7109 123.041 25.7109C123.036 25.7109 123.031 25.7109 123.026 25.7109C123.021 25.7109 123.016 25.7109 123.01 25.7109C123.004 25.7109 122.999 25.7109 122.993 25.7109C122.987 25.7109 122.981 25.7109 122.974 25.7109C122.968 25.7109 122.961 25.7109 122.954 25.7109C122.948 25.7109 122.941 25.7109 122.934 25.7109C122.926 25.7109 122.919 25.7109 122.912 25.7109C122.904 25.7109 122.896 25.7109 122.888 25.7109C122.881 25.7109 122.872 25.7109 122.864 25.7109C122.856 25.7109 122.847 25.7109 122.839 25.7109C122.83 25.7109 122.821 25.7109 122.812 25.7109C122.803 25.7109 122.794 25.7109 122.784 25.7109C122.775 25.7109 122.765 25.7109 122.755 25.7109C122.746 25.7109 122.736 25.7109 122.725 25.7109C122.715 25.7109 122.705 25.7109 122.694 25.7109C122.684 25.7109 122.673 25.7109 122.662 25.7109C122.651 25.7109 122.64 25.7109 122.628 25.7109C122.617 25.7109 122.606 25.7109 122.594 25.7109C122.582 25.7109 122.57 25.7109 122.558 25.7109C122.546 25.7109 122.534 25.7109 122.521 25.7109C122.509 25.7109 122.496 25.7109 122.483 25.7109C122.471 25.7109 122.458 25.7109 122.444 25.7109C122.431 25.7109 122.418 25.7109 122.404 25.7109C122.391 25.7109 122.377 25.7109 122.363 25.7109C122.349 25.7109 122.335 25.7109 122.321 25.7109C122.306 25.7109 122.292 25.7109 122.277 25.7109C122.263 25.7109 122.248 25.7109 122.233 25.7109C122.218 25.7109 122.202 25.7109 122.187 25.7109C122.172 25.7109 122.156 25.7109 122.14 25.7109C122.125 25.7109 122.109 25.7109 122.092 25.7109C122.076 25.7109 122.06 25.7109 122.044 25.7109C122.027 25.7109 122.01 25.7109 121.994 25.7109C121.977 25.7109 121.96 25.7109 121.943 25.7109C121.925 25.7109 121.908 25.7109 121.89 25.7109C121.873 25.7109 121.855 25.7109 121.837 25.7109C121.819 25.7109 121.801 25.7109 121.783 25.7109C121.765 25.7109 121.746 25.7109 121.728 25.7109C121.709 25.7109 121.69 25.7109 121.671 25.7109C121.652 25.7109 121.633 25.7109 121.614 25.7109C121.594 25.7109 121.575 25.7109 121.555 25.7109C121.536 25.7109 121.516 25.7109 121.496 25.7109C121.476 25.7109 121.455 25.7109 121.435 25.7109C121.415 25.7109 121.394 25.7109 121.373 25.7109C121.353 25.7109 121.332 25.7109 121.311 25.7109C121.29 25.7109 121.268 25.7109 121.247 25.7109C121.226 25.7109 121.204 25.7109 121.182 25.7109C121.16 25.7109 121.139 25.7109 121.116 25.7109C121.094 25.7109 121.072 25.7109 121.05 25.7109C121.027 25.7109 121.005 25.7109 120.982 25.7109C120.959 25.7109 120.936 25.7109 120.913 25.7109C120.89 25.7109 120.866 25.7109 120.843 25.7109C120.819 25.7109 120.796 25.7109 120.772 25.7109C120.748 25.7109 120.724 25.7109 120.7 25.7109C120.676 25.7109 120.652 25.7109 120.627 25.7109C120.603 25.7109 120.578 25.7109 120.553 25.7109C120.528 25.7109 120.503 25.7109 120.478 25.7109C120.453 25.7109 120.428 25.7109 120.402 25.7109C120.377 25.7109 120.351 25.7109 120.325 25.7109C120.3 25.7109 120.274 25.7109 120.248 25.7109C120.221 25.7109 120.195 25.7109 120.169 25.7109C120.142 25.7109 120.116 25.7109 120.089 25.7109C120.062 25.7109 120.035 25.7109 120.008 25.7109C119.981 25.7109 119.953 25.7109 119.926 25.7109C119.899 25.7109 119.871 25.7109 119.843 25.7109C119.815 25.7109 119.787 25.7109 119.759 25.7109C119.731 25.7109 119.703 25.7109 119.675 25.7109C119.646 25.7109 119.618 25.7109 119.589 25.7109C119.56 25.7109 119.531 25.7109 119.502 25.7109C119.473 25.7109 119.444 25.7109 119.414 25.7109C119.385 25.7109 119.355 25.7109 119.326 25.7109C119.296 25.7109 119.266 25.7109 119.236 25.7109C119.206 25.7109 119.176 25.7109 119.146 25.7109C119.115 25.7109 119.085 25.7109 119.054 25.7109C119.023 25.7109 118.993 25.7109 118.962 25.7109C118.931 25.7109 118.9 25.7109 118.868 25.7109C118.837 25.7109 118.806 25.7109 118.774 25.7109C118.742 25.7109 118.711 25.7109 118.679 25.7109C118.647 25.7109 118.615 25.7109 118.583 25.7109C118.55 25.7109 118.518 25.7109 118.486 25.7109C118.453 25.7109 118.42 25.7109 118.387 25.7109C118.355 25.7109 118.322 25.7109 118.289 25.7109C118.255 25.7109 118.222 25.7109 118.189 25.7109C118.155 25.7109 118.122 25.7109 118.088 25.7109C118.054 25.7109 118.02 25.7109 117.986 25.7109C117.952 25.7109 117.918 25.7109 117.884 25.7109C117.849 25.7109 117.815 25.7109 117.78 25.7109C117.745 25.7109 117.711 25.7109 117.676 25.7109C117.641 25.7109 117.606 25.7109 117.57 25.7109C117.535 25.7109 117.5 25.7109 117.464 25.7109C117.429 25.7109 117.393 25.7109 117.357 25.7109C117.321 25.7109 117.285 25.7109 117.249 25.7109C117.213 25.7109 117.177 25.7109 117.14 25.7109C117.104 25.7109 117.067 25.7109 117.03 25.7109C116.994 25.7109 116.957 25.7109 116.92 25.7109C116.883 25.7109 116.846 25.7109 116.808 25.7109C116.771 25.7109 116.734 25.7109 116.696 25.7109C116.658 25.7109 116.621 25.7109 116.583 25.7109C116.545 25.7109 116.507 25.7109 116.469 25.7109C116.43 25.7109 116.392 25.7109 116.354 25.7109C116.315 25.7109 116.276 25.7109 116.238 25.7109C116.199 25.7109 116.16 25.7109 116.121 25.7109C116.082 25.7109 116.043 25.7109 116.003 25.7109C115.964 25.7109 115.925 25.7109 115.885 25.7109C115.845 25.7109 115.806 25.7109 115.766 25.7109C115.726 25.7109 115.686 25.7109 115.646 25.7109C115.606 25.7109 115.565 25.7109 115.525 25.7109C115.484 25.7109 115.444 25.7109 115.403 25.7109C115.362 25.7109 115.321 25.7109 115.28 25.7109C115.239 25.7109 115.198 25.7109 115.157 25.7109C115.116 25.7109 115.074 25.7109 115.033 25.7109C114.991 25.7109 114.949 25.7109 114.908 25.7109C114.866 25.7109 114.824 25.7109 114.782 25.7109C114.74 25.7109 114.697 25.7109 114.655 25.7109C114.613 25.7109 114.57 25.7109 114.527 25.7109C114.485 25.7109 114.442 25.7109 114.399 25.7109C114.356 25.7109 114.313 25.7109 114.27 25.7109C114.227 25.7109 114.183 25.7109 114.14 25.7109C114.096 25.7109 114.053 25.7109 114.009 25.7109C113.965 25.7109 113.922 25.7109 113.878 25.7109C113.834 25.7109 113.789 25.7109 113.745 25.7109C113.701 25.7109 113.657 25.7109 113.612 25.7109C113.567 25.7109 113.523 25.7109 113.478 25.7109C113.433 25.7109 113.388 25.7109 113.343 25.7109C113.298 25.7109 113.253 25.7109 113.208 25.7109C113.163 25.7109 113.117 25.7109 113.072 25.7109C113.026 25.7109 112.98 25.7109 112.934 25.7109C112.889 25.7109 112.843 25.7109 112.797 25.7109C112.751 25.7109 112.704 25.7109 112.658 25.7109C112.612 25.7109 112.565 25.7109 112.519 25.7109C112.472 25.7109 112.425 25.7109 112.378 25.7109C112.332 25.7109 112.285 25.7109 112.238 25.7109C112.19 25.7109 112.143 25.7109 112.096 25.7109C112.049 25.7109 112.001 25.7109 111.953 25.7109C111.906 25.7109 111.858 25.7109 111.81 25.7109C111.762 25.7109 111.715 25.7109 111.666 25.7109C111.618 25.7109 111.57 25.7109 111.522 25.7109C111.473 25.7109 111.425 25.7109 111.376 25.7109C111.328 25.7109 111.279 25.7109 111.23 25.7109C111.181 25.7109 111.132 25.7109 111.083 25.7109C111.034 25.7109 110.985 25.7109 110.936 25.7109C110.886 25.7109 110.837 25.7109 110.787 25.7109C110.738 25.7109 110.688 25.7109 110.638 25.7109C110.589 25.7109 110.539 25.7109 110.489 25.7109C110.439 25.7109 110.388 25.7109 110.338 25.7109C110.288 25.7109 110.237 25.7109 110.187 25.7109C110.136 25.7109 110.086 25.7109 110.035 25.7109C109.984 25.7109 109.933 25.7109 109.882 25.7109C109.831 25.7109 109.78 25.7109 109.729 25.7109C109.678 25.7109 109.627 25.7109 109.575 25.7109C109.524 25.7109 109.472 25.7109 109.42 25.7109C109.369 25.7109 109.317 25.7109 109.265 25.7109C109.213 25.7109 109.161 25.7109 109.109 25.7109C109.057 25.7109 109.004 25.7109 108.952 25.7109C108.9 25.7109 108.847 25.7109 108.795 25.7109C108.742 25.7109 108.689 25.7109 108.636 25.7109C108.584 25.7109 108.531 25.7109 108.478 25.7109C108.424 25.7109 108.371 25.7109 108.318 25.7109C108.265 25.7109 108.211 25.7109 108.158 25.7109C108.104 25.7109 108.051 25.7109 107.997 25.7109C107.943 25.7109 107.889 25.7109 107.835 25.7109C107.782 25.7109 107.727 25.7109 107.673 25.7109C107.619 25.7109 107.565 25.7109 107.51 25.7109C107.456 25.7109 107.402 25.7109 107.347 25.7109C107.292 25.7109 107.238 25.7109 107.183 25.7109C107.128 25.7109 107.073 25.7109 107.018 25.7109C106.963 25.7109 106.908 25.7109 106.853 25.7109C106.797 25.7109 106.742 25.7109 106.686 25.7109C106.631 25.7109 106.575 25.7109 106.52 25.7109C106.464 25.7109 106.408 25.7109 106.352 25.7109C106.296 25.7109 106.24 25.7109 106.184 25.7109C106.128 25.7109 106.072 25.7109 106.016 25.7109C105.959 25.7109 105.903 25.7109 105.846 25.7109C105.79 25.7109 105.733 25.7109 105.676 25.7109C105.62 25.7109 105.563 25.7109 105.506 25.7109C105.449 25.7109 105.392 25.7109 105.335 25.7109C105.278 25.7109 105.22 25.7109 105.163 25.7109C105.106 25.7109 105.048 25.7109 104.991 25.7109C104.933 25.7109 104.876 25.7109 104.818 25.7109C104.76 25.7109 104.702 25.7109 104.644 25.7109C104.586 25.7109 104.528 25.7109 104.47 25.7109C104.412 25.7109 104.354 25.7109 104.295 25.7109C104.237 25.7109 104.179 25.7109 104.12 25.7109C104.061 25.7109 104.003 25.7109 103.944 25.7109C103.885 25.7109 103.826 25.7109 103.767 25.7109C103.709 25.7109 103.649 25.7109 103.59 25.7109C103.531 25.7109 103.472 25.7109 103.413 25.7109C103.353 25.7109 103.294 25.7109 103.234 25.7109C103.175 25.7109 103.115 25.7109 103.056 25.7109C102.996 25.7109 102.936 25.7109 102.876 25.7109C102.816 25.7109 102.756 25.7109 102.696 25.7109C102.636 25.7109 102.576 25.7109 102.516 25.7109C102.455 25.7109 102.395 25.7109 102.334 25.7109C102.274 25.7109 102.213 25.7109 102.153 25.7109C102.092 25.7109 102.031 25.7109 101.97 25.7109C101.91 25.7109 101.849 25.7109 101.788 25.7109C101.727 25.7109 101.666 25.7109 101.604 25.7109C101.543 25.7109 101.482 25.7109 101.42 25.7109C101.359 25.7109 101.298 25.7109 101.236 25.7109C101.174 25.7109 101.113 25.7109 101.051 25.7109C100.989 25.7109 100.927 25.7109 100.866 25.7109C100.804 25.7109 100.742 25.7109 100.68 25.7109C100.617 25.7109 100.555 25.7109 100.493 25.7109C100.431 25.7109 100.368 25.7109 100.306 25.7109C100.243 25.7109 100.181 25.7109 100.118 25.7109C100.056 25.7109 99.9929 25.7109 99.9301 25.7109C99.8673 25.7109 99.8044 25.7109 99.7414 25.7109C99.6785 25.7109 99.6154 25.7109 99.5523 25.7109C99.4891 25.7109 99.4259 25.7109 99.3626 25.7109C99.2993 25.7109 99.2359 25.7109 99.1724 25.7109C99.1089 25.7109 99.0454 25.7109 98.9817 25.7109C98.9181 25.7109 98.8543 25.7109 98.7905 25.7109C98.7267 25.7109 98.6628 25.7109 98.5988 25.7109C98.5348 25.7109 98.4708 25.7109 98.4066 25.7109C98.3425 25.7109 98.2783 25.7109 98.214 25.7109C98.1497 25.7109 98.0853 25.7109 98.0208 25.7109C97.9563 25.7109 97.8918 25.7109 97.8272 25.7109C97.7625 25.7109 97.6978 25.7109 97.633 25.7109C97.5682 25.7109 97.5034 25.7109 97.4384 25.7109C97.3735 25.7109 97.3084 25.7109 97.2433 25.7109C97.1782 25.7109 97.113 25.7109 97.0478 25.7109C96.9825 25.7109 96.9172 25.7109 96.8518 25.7109C96.7863 25.7109 96.7208 25.7109 96.6553 25.7109C96.5897 25.7109 96.524 25.7109 96.4583 25.7109C96.3926 25.7109 96.3268 25.7109 96.2609 25.7109C96.195 25.7109 96.1291 25.7109 96.063 25.7109C95.997 25.7109 95.9309 25.7109 95.8647 25.7109C95.7986 25.7109 95.7323 25.7109 95.666 25.7109C95.5996 25.7109 95.5332 25.7109 95.4668 25.7109C95.4003 25.7109 95.3337 25.7109 95.2671 25.7109C95.2005 25.7109 95.1338 25.7109 95.067 25.7109C95.0002 25.7109 94.9334 25.7109 94.8665 25.7109C94.7996 25.7109 94.7326 25.7109 94.6655 25.7109C94.5985 25.7109 94.5313 25.7109 94.4641 25.7109C94.3969 25.7109 94.3297 25.7109 94.2623 25.7109C94.195 25.7109 94.1276 25.7109 94.0601 25.7109C93.9926 25.7109 93.925 25.7109 93.8574 25.7109C93.7898 25.7109 93.7221 25.7109 93.6543 25.7109C93.5866 25.7109 93.5188 25.7109 93.4509 25.7109C93.383 25.7109 93.315 25.7109 93.247 25.7109C93.1789 25.7109 93.1108 25.7109 93.0426 25.7109C92.9745 25.7109 92.9062 25.7109 92.8379 25.7109C92.7696 25.7109 92.7013 25.7109 92.6328 25.7109C92.5644 25.7109 92.4959 25.7109 92.4273 25.7109C92.3588 25.7109 92.2901 25.7109 92.2214 25.7109C92.1527 25.7109 92.084 25.7109 92.0151 25.7109C91.9463 25.7109 91.8774 25.7109 91.8084 25.7109C91.7395 25.7109 91.6705 25.7109 91.6014 25.7109C91.5323 25.7109 91.4632 25.7109 91.3939 25.7109C91.3247 25.7109 91.2555 25.7109 91.1861 25.7109C91.1168 25.7109 91.0474 25.7109 90.9779 25.7109C90.9085 25.7109 90.8389 25.7109 90.7694 25.7109C90.6998 25.7109 90.6301 25.7109 90.5604 25.7109C90.4907 25.7109 90.4209 25.7109 90.3511 25.7109C90.2813 25.7109 90.2114 25.7109 90.1415 25.7109C90.0715 25.7109 90.0015 25.7109 89.9314 25.7109C89.8614 25.7109 89.7912 25.7109 89.7211 25.7109C89.6509 25.7109 89.5806 25.7109 89.5103 25.7109C89.44 25.7109 89.3697 25.7109 89.2993 25.7109C89.2288 25.7109 89.1584 25.7109 89.0878 25.7109C89.0173 25.7109 88.9467 25.7109 88.8761 25.7109C88.8054 25.7109 88.7347 25.7109 88.664 25.7109C88.5932 25.7109 88.5224 25.7109 88.4515 25.7109C88.3807 25.7109 88.3097 25.7109 88.2388 25.7109C88.1678 25.7109 88.0967 25.7109 88.0257 25.7109C87.9546 25.7109 87.8834 25.7109 87.8122 25.7109C87.741 25.7109 87.6698 25.7109 87.5985 25.7109C87.5272 25.7109 87.4558 25.7109 87.3844 25.7109C87.313 25.7109 87.2415 25.7109 87.17 25.7109C87.0985 25.7109 87.0269 25.7109 86.9553 25.7109C86.8837 25.7109 86.812 25.7109 86.7403 25.7109C86.6686 25.7109 86.5968 25.7109 86.525 25.7109C86.4532 25.7109 86.3813 25.7109 86.3094 25.7109C86.2375 25.7109 86.1655 25.7109 86.0935 25.7109C86.0215 25.7109 85.9494 25.7109 85.8773 25.7109C85.8051 25.7109 85.733 25.7109 85.6608 25.7109C85.5885 25.7109 85.5163 25.7109 85.444 25.7109C85.3716 25.7109 85.2993 25.7109 85.2269 25.7109C85.1545 25.7109 85.082 25.7109 85.0095 25.7109C84.937 25.7109 84.8645 25.7109 84.7919 25.7109C84.7193 25.7109 84.6466 25.7109 84.5739 25.7109C84.5012 25.7109 84.4285 25.7109 84.3557 25.7109C84.283 25.7109 84.2101 25.7109 84.1373 25.7109C84.0644 25.7109 83.9915 25.7109 83.9185 25.7109C83.8456 25.7109 83.7726 25.7109 83.6995 25.7109C83.6265 25.7109 83.5534 25.7109 83.4802 25.7109C83.4071 25.7109 83.3339 25.7109 83.2607 25.7109C83.1875 25.7109 83.1143 25.7109 83.041 25.7109C82.9677 25.7109 82.8943 25.7109 82.8209 25.7109C82.7475 25.7109 82.6741 25.7109 82.6006 25.7109C82.5272 25.7109 82.4537 25.7109 82.3801 25.7109C82.3066 25.7109 82.233 25.7109 82.1594 25.7109C82.0857 25.7109 82.0121 25.7109 81.9384 25.7109C81.8646 25.7109 81.7909 25.7109 81.7171 25.7109C81.6433 25.7109 81.5695 25.7109 81.4957 25.7109C81.4218 25.7109 81.3479 25.7109 81.2739 25.7109C81.2 25.7109 81.126 25.7109 81.052 25.7109C80.978 25.7109 80.904 25.7109 80.8299 25.7109C80.7558 25.7109 80.6817 25.7109 80.6075 25.7109C80.5334 25.7109 80.4592 25.7109 80.3849 25.7109C80.3107 25.7109 80.2364 25.7109 80.1621 25.7109C80.0878 25.7109 80.0135 25.7109 79.9391 25.7109C79.8648 25.7109 79.7904 25.7109 79.7159 25.7109C79.6415 25.7109 79.567 25.7109 79.4925 25.7109C79.418 25.7109 79.3435 25.7109 79.2689 25.7109C79.1943 25.7109 79.1197 25.7109 79.0451 25.7109C78.9705 25.7109 78.8958 25.7109 78.8211 25.7109C78.7464 25.7109 78.6717 25.7109 78.5969 25.7109C78.5221 25.7109 78.4473 25.7109 78.3725 25.7109C78.2977 25.7109 78.2228 25.7109 78.148 25.7109C78.0731 25.7109 77.9982 25.7109 77.9232 25.7109C77.8483 25.7109 77.7733 25.7109 77.6983 25.7109C77.6233 25.7109 77.5483 25.7109 77.4732 25.7109C77.3981 25.7109 77.3231 25.7109 77.2479 25.7109C77.1728 25.7109 77.0977 25.7109 77.0225 25.7109C76.9473 25.7109 76.8721 25.7109 76.7969 25.7109C76.7217 25.7109 76.6464 25.7109 76.5712 25.7109C76.4959 25.7109 76.4206 25.7109 76.3452 25.7109C76.2699 25.7109 76.1946 25.7109 76.1192 25.7109C76.0438 25.7109 75.9684 25.7109 75.893 25.7109C75.8175 25.7109 75.7421 25.7109 75.6666 25.7109C75.5911 25.7109 75.5156 25.7109 75.4401 25.7109C75.3645 25.7109 75.289 25.7109 75.2134 25.7109C75.1378 25.7109 75.0623 25.7109 74.9866 25.7109C74.911 25.7109 74.8354 25.7109 74.7597 25.7109C74.684 25.7109 74.6084 25.7109 74.5326 25.7109C74.4569 25.7109 74.3812 25.7109 74.3055 25.7109C74.2297 25.7109 74.1539 25.7109 74.0781 25.7109C74.0024 25.7109 73.9265 25.7109 73.8507 25.7109C73.7749 25.7109 73.699 25.7109 73.6232 25.7109C73.5473 25.7109 73.4714 25.7109 73.3955 25.7109C73.3196 25.7109 73.2437 25.7109 73.1677 25.7109C73.0918 25.7109 73.0158 25.7109 72.9398 25.7109C72.8638 25.7109 72.7878 25.7109 72.7118 25.7109C72.6358 25.7109 72.5598 25.7109 72.4837 25.7109C72.4077 25.7109 72.3316 25.7109 72.2555 25.7109C72.1795 25.7109 72.1034 25.7109 72.0272 25.7109C71.9511 25.7109 71.875 25.7109 71.7989 25.7109C71.7227 25.7109 71.6466 25.7109 71.5704 25.7109C71.4942 25.7109 71.418 25.7109 71.3418 25.7109C71.2656 25.7109 71.1894 25.7109 71.1132 25.7109C71.037 25.7109 70.9607 25.7109 70.8845 25.7109C70.8082 25.7109 70.7319 25.7109 70.6557 25.7109C70.5794 25.7109 70.5031 25.7109 70.4268 25.7109C70.3505 25.7109 70.2742 25.7109 70.1978 25.7109C70.1215 25.7109 70.0452 25.7109 69.9688 25.7109C69.8925 25.7109 69.8161 25.7109 69.7397 25.7109C69.6634 25.7109 69.587 25.7109 69.5106 25.7109C69.4342 25.7109 69.3578 25.7109 69.2814 25.7109C69.205 25.7109 69.1286 25.7109 69.0522 25.7109C68.9757 25.7109 68.8993 25.7109 68.8229 25.7109C68.7464 25.7109 68.67 25.7109 68.5935 25.7109C68.5171 25.7109 68.4406 25.7109 68.3641 25.7109C68.2877 25.7109 68.2112 25.7109 68.1347 25.7109C68.0582 25.7109 67.9817 25.7109 67.9052 25.7109C67.8287 25.7109 67.7522 25.7109 67.6757 25.7109C67.5992 25.7109 67.5227 25.7109 67.4462 25.7109C67.3697 25.7109 67.2932 25.7109 67.2166 25.7109C67.1401 25.7109 67.0636 25.7109 66.9871 25.7109C66.9105 25.7109 66.834 25.7109 66.7574 25.7109C66.6809 25.7109 66.6044 25.7109 66.5278 25.7109C66.4513 25.7109 66.3747 25.7109 66.2982 25.7109C66.2216 25.7109 66.1451 25.7109 66.0685 25.7109C65.992 25.7109 65.9154 25.7109 65.8389 25.7109C65.7623 25.7109 65.6857 25.7109 65.6092 25.7109C65.5326 25.7109 65.4561 25.7109 65.3795 25.7109C65.303 25.7109 65.2264 25.7109 65.1498 25.7109C65.0733 25.7109 64.9967 25.7109 64.9202 25.7109C64.8436 25.7109 64.7671 25.7109 64.6905 25.7109C64.614 25.7109 64.5374 25.7109 64.4609 25.7109C64.3843 25.7109 64.3078 25.7109 64.2312 25.7109C64.1547 25.7109 64.0782 25.7109 64.0016 25.7109C63.9251 25.7109 63.8486 25.7109 63.772 25.7109C63.6955 25.7109 63.619 25.7109 63.5425 25.7109C63.4659 25.7109 63.3894 25.7109 63.3129 25.7109C63.2364 25.7109 63.1599 25.7109 63.0834 25.7109C63.0069 25.7109 62.9304 25.7109 62.8539 25.7109C62.7774 25.7109 62.7009 25.7109 62.6245 25.7109C62.548 25.7109 62.4715 25.7109 62.3951 25.7109C62.3186 25.7109 62.2421 25.7109 62.1657 25.7109C62.0893 25.7109 62.0128 25.7109 61.9364 25.7109C61.86 25.7109 61.7835 25.7109 61.7071 25.7109C61.6307 25.7109 61.5543 25.7109 61.4779 25.7109C61.4015 25.7109 61.3251 25.7109 61.2488 25.7109C61.1724 25.7109 61.096 25.7109 61.0197 25.7109C60.9433 25.7109 60.867 25.7109 60.7906 25.7109C60.7143 25.7109 60.638 25.7109 60.5616 25.7109C60.4853 25.7109 60.409 25.7109 60.3328 25.7109C60.2565 25.7109 60.1802 25.7109 60.1039 25.7109C60.0277 25.7109 59.9514 25.7109 59.8752 25.7109C59.7989 25.7109 59.7227 25.7109 59.6465 25.7109C59.5703 25.7109 59.4941 25.7109 59.4179 25.7109C59.3417 25.7109 59.2656 25.7109 59.1894 25.7109C59.1132 25.7109 59.0371 25.7109 58.961 25.7109C58.8849 25.7109 58.8087 25.7109 58.7327 25.7109C58.6566 25.7109 58.5805 25.7109 58.5044 25.7109C58.4284 25.7109 58.3523 25.7109 58.2763 25.7109C58.2003 25.7109 58.1243 25.7109 58.0483 25.7109C57.9723 25.7109 57.8963 25.7109 57.8203 25.7109C57.7444 25.7109 57.6684 25.7109 57.5925 25.7109C57.5166 25.7109 57.4407 25.7109 57.3648 25.7109C57.2889 25.7109 57.2131 25.7109 57.1372 25.7109C57.0614 25.7109 56.9855 25.7109 56.9097 25.7109C56.8339 25.7109 56.7581 25.7109 56.6824 25.7109C56.6066 25.7109 56.5309 25.7109 56.4551 25.7109C56.3794 25.7109 56.3037 25.7109 56.228 25.7109C56.1524 25.7109 56.0767 25.7109 56.0011 25.7109C55.9254 25.7109 55.8498 25.7109 55.7742 25.7109C55.6986 25.7109 55.6231 25.7109 55.5475 25.7109C55.472 25.7109 55.3965 25.7109 55.321 25.7109C55.2455 25.7109 55.17 25.7109 55.0945 25.7109C55.0191 25.7109 54.9437 25.7109 54.8683 25.7109C54.7929 25.7109 54.7175 25.7109 54.6421 25.7109C54.5668 25.7109 54.4915 25.7109 54.4162 25.7109C54.3409 25.7109 54.2656 25.7109 54.1904 25.7109C54.1151 25.7109 54.0399 25.7109 53.9647 25.7109C53.8895 25.7109 53.8144 25.7109 53.7392 25.7109C53.6641 25.7109 53.589 25.7109 53.5139 25.7109C53.4388 25.7109 53.3638 25.7109 53.2887 25.7109C53.2137 25.7109 53.1387 25.7109 53.0638 25.7109C52.9888 25.7109 52.9139 25.7109 52.839 25.7109C52.764 25.7109 52.6892 25.7109 52.6143 25.7109C52.5395 25.7109 52.4647 25.7109 52.3899 25.7109C52.3151 25.7109 52.2403 25.7109 52.1656 25.7109C52.0909 25.7109 52.0162 25.7109 51.9416 25.7109C51.8669 25.7109 51.7923 25.7109 51.7177 25.7109C51.6431 25.7109 51.5685 25.7109 51.494 25.7109C51.4195 25.7109 51.345 25.7109 51.2705 25.7109C51.196 25.7109 51.1216 25.7109 51.0472 25.7109C50.9728 25.7109 50.8985 25.7109 50.8241 25.7109C50.7498 25.7109 50.6755 25.7109 50.6013 25.7109C50.527 25.7109 50.4528 25.7109 50.3786 25.7109C50.3044 25.7109 50.2303 25.7109 50.1562 25.7109C50.0821 25.7109 50.008 25.7109 49.9339 25.7109C49.8599 25.7109 49.7859 25.7109 49.7119 25.7109C49.638 25.7109 49.5641 25.7109 49.4902 25.7109C49.4163 25.7109 49.3424 25.7109 49.2686 25.7109C49.1948 25.7109 49.121 25.7109 49.0473 25.7109C48.9736 25.7109 48.8999 25.7109 48.8262 25.7109C48.7525 25.7109 48.6789 25.7109 48.6054 25.7109C48.5318 25.7109 48.4582 25.7109 48.3847 25.7109C48.3112 25.7109 48.2378 25.7109 48.1644 25.7109C48.091 25.7109 48.0176 25.7109 47.9443 25.7109C47.8709 25.7109 47.7976 25.7109 47.7244 25.7109C47.6511 25.7109 47.5779 25.7109 47.5048 25.7109C47.4316 25.7109 47.3585 25.7109 47.2854 25.7109C47.2123 25.7109 47.1393 25.7109 47.0663 25.7109C46.9933 25.7109 46.9204 25.7109 46.8475 25.7109C46.7746 25.7109 46.7017 25.7109 46.6289 25.7109C46.5561 25.7109 46.4833 25.7109 46.4106 25.7109C46.3379 25.7109 46.2652 25.7109 46.1926 25.7109C46.12 25.7109 46.0474 25.7109 45.9748 25.7109C45.9023 25.7109 45.8298 25.7109 45.7574 25.7109C45.6849 25.7109 45.6125 25.7109 45.5402 25.7109C45.4678 25.7109 45.3955 25.7109 45.3233 25.7109C45.251 25.7109 45.1788 25.7109 45.1067 25.7109C45.0345 25.7109 44.9624 25.7109 44.8904 25.7109C44.8183 25.7109 44.7463 25.7109 44.6743 25.7109C44.6024 25.7109 44.5305 25.7109 44.4586 25.7109C44.3867 25.7109 44.3149 25.7109 44.2432 25.7109C44.1714 25.7109 44.0997 25.7109 44.0281 25.7109C43.9564 25.7109 43.8848 25.7109 43.8133 25.7109C43.7417 25.7109 43.6702 25.7109 43.5988 25.7109C43.5273 25.7109 43.4559 25.7109 43.3846 25.7109C43.3132 25.7109 43.242 25.7109 43.1707 25.7109C43.0995 25.7109 43.0283 25.7109 42.9572 25.7109C42.886 25.7109 42.815 25.7109 42.744 25.7109C42.6729 25.7109 42.602 25.7109 42.5311 25.7109C42.4602 25.7109 42.3893 25.7109 42.3185 25.7109C42.2477 25.7109 42.177 25.7109 42.1063 25.7109C42.0356 25.7109 41.965 25.7109 41.8944 25.7109C41.8238 25.7109 41.7533 25.7109 41.6829 25.7109C41.6124 25.7109 41.542 25.7109 41.4717 25.7109C41.4013 25.7109 41.331 25.7109 41.2608 25.7109C41.1906 25.7109 41.1204 25.7109 41.0503 25.7109C40.9802 25.7109 40.9101 25.7109 40.8401 25.7109C40.7702 25.7109 40.7002 25.7109 40.6304 25.7109C40.5605 25.7109 40.4907 25.7109 40.4209 25.7109C40.3512 25.7109 40.2815 25.7109 40.2119 25.7109C40.1422 25.7109 40.0727 25.7109 40.0032 25.7109C39.9337 25.7109 39.8642 25.7109 39.7948 25.7109C39.7254 25.7109 39.6561 25.7109 39.5869 25.7109C39.5176 25.7109 39.4484 25.7109 39.3793 25.7109C39.3102 25.7109 39.2411 25.7109 39.1721 25.7109C39.1031 25.7109 39.0341 25.7109 38.9653 25.7109C38.8964 25.7109 38.8276 25.7109 38.7588 25.7109C38.6901 25.7109 38.6214 25.7109 38.5528 25.7109C38.4842 25.7109 38.4156 25.7109 38.3471 25.7109C38.2787 25.7109 38.2102 25.7109 38.1419 25.7109C38.0735 25.7109 38.0053 25.7109 37.937 25.7109C37.8688 25.7109 37.8007 25.7109 37.7326 25.7109C37.6645 25.7109 37.5965 25.7109 37.5285 25.7109C37.4606 25.7109 37.3927 25.7109 37.3249 25.7109C37.2571 25.7109 37.1894 25.7109 37.1217 25.7109C37.054 25.7109 36.9864 25.7109 36.9189 25.7109C36.8513 25.7109 36.7839 25.7109 36.7165 25.7109C36.6491 25.7109 36.5818 25.7109 36.5145 25.7109C36.4473 25.7109 36.3801 25.7109 36.313 25.7109C36.2459 25.7109 36.1788 25.7109 36.1119 25.7109C36.0449 25.7109 35.978 25.7109 35.9112 25.7109C35.8443 25.7109 35.7776 25.7109 35.7109 25.7109V45.7109C35.7776 45.7109 35.8443 45.7109 35.9112 45.7109C35.978 45.7109 36.0449 45.7109 36.1119 45.7109C36.1788 45.7109 36.2459 45.7109 36.313 45.7109C36.3801 45.7109 36.4473 45.7109 36.5145 45.7109C36.5818 45.7109 36.6491 45.7109 36.7165 45.7109C36.7839 45.7109 36.8513 45.7109 36.9189 45.7109C36.9864 45.7109 37.054 45.7109 37.1217 45.7109C37.1894 45.7109 37.2571 45.7109 37.3249 45.7109C37.3927 45.7109 37.4606 45.7109 37.5285 45.7109C37.5965 45.7109 37.6645 45.7109 37.7326 45.7109C37.8007 45.7109 37.8688 45.7109 37.937 45.7109C38.0053 45.7109 38.0735 45.7109 38.1419 45.7109C38.2102 45.7109 38.2787 45.7109 38.3471 45.7109C38.4156 45.7109 38.4842 45.7109 38.5528 45.7109C38.6214 45.7109 38.6901 45.7109 38.7588 45.7109C38.8276 45.7109 38.8964 45.7109 38.9653 45.7109C39.0341 45.7109 39.1031 45.7109 39.1721 45.7109C39.2411 45.7109 39.3102 45.7109 39.3793 45.7109C39.4484 45.7109 39.5176 45.7109 39.5869 45.7109C39.6561 45.7109 39.7254 45.7109 39.7948 45.7109C39.8642 45.7109 39.9337 45.7109 40.0032 45.7109C40.0727 45.7109 40.1422 45.7109 40.2119 45.7109C40.2815 45.7109 40.3512 45.7109 40.4209 45.7109C40.4907 45.7109 40.5605 45.7109 40.6304 45.7109C40.7002 45.7109 40.7702 45.7109 40.8401 45.7109C40.9101 45.7109 40.9802 45.7109 41.0503 45.7109C41.1204 45.7109 41.1906 45.7109 41.2608 45.7109C41.331 45.7109 41.4013 45.7109 41.4717 45.7109C41.542 45.7109 41.6124 45.7109 41.6829 45.7109C41.7533 45.7109 41.8238 45.7109 41.8944 45.7109C41.965 45.7109 42.0356 45.7109 42.1063 45.7109C42.177 45.7109 42.2477 45.7109 42.3185 45.7109C42.3893 45.7109 42.4602 45.7109 42.5311 45.7109C42.602 45.7109 42.6729 45.7109 42.744 45.7109C42.815 45.7109 42.886 45.7109 42.9572 45.7109C43.0283 45.7109 43.0995 45.7109 43.1707 45.7109C43.242 45.7109 43.3132 45.7109 43.3846 45.7109C43.4559 45.7109 43.5273 45.7109 43.5988 45.7109C43.6702 45.7109 43.7417 45.7109 43.8133 45.7109C43.8848 45.7109 43.9564 45.7109 44.0281 45.7109C44.0997 45.7109 44.1714 45.7109 44.2432 45.7109C44.3149 45.7109 44.3867 45.7109 44.4586 45.7109C44.5305 45.7109 44.6024 45.7109 44.6743 45.7109C44.7463 45.7109 44.8183 45.7109 44.8904 45.7109C44.9624 45.7109 45.0345 45.7109 45.1067 45.7109C45.1788 45.7109 45.251 45.7109 45.3233 45.7109C45.3955 45.7109 45.4678 45.7109 45.5402 45.7109C45.6125 45.7109 45.6849 45.7109 45.7574 45.7109C45.8298 45.7109 45.9023 45.7109 45.9748 45.7109C46.0474 45.7109 46.12 45.7109 46.1926 45.7109C46.2652 45.7109 46.3379 45.7109 46.4106 45.7109C46.4833 45.7109 46.5561 45.7109 46.6289 45.7109C46.7017 45.7109 46.7746 45.7109 46.8475 45.7109C46.9204 45.7109 46.9933 45.7109 47.0663 45.7109C47.1393 45.7109 47.2123 45.7109 47.2854 45.7109C47.3585 45.7109 47.4316 45.7109 47.5048 45.7109C47.5779 45.7109 47.6511 45.7109 47.7244 45.7109C47.7976 45.7109 47.8709 45.7109 47.9443 45.7109C48.0176 45.7109 48.091 45.7109 48.1644 45.7109C48.2378 45.7109 48.3112 45.7109 48.3847 45.7109C48.4582 45.7109 48.5318 45.7109 48.6054 45.7109C48.6789 45.7109 48.7525 45.7109 48.8262 45.7109C48.8999 45.7109 48.9736 45.7109 49.0473 45.7109C49.121 45.7109 49.1948 45.7109 49.2686 45.7109C49.3424 45.7109 49.4163 45.7109 49.4902 45.7109C49.5641 45.7109 49.638 45.7109 49.7119 45.7109C49.7859 45.7109 49.8599 45.7109 49.9339 45.7109C50.008 45.7109 50.0821 45.7109 50.1562 45.7109C50.2303 45.7109 50.3044 45.7109 50.3786 45.7109C50.4528 45.7109 50.527 45.7109 50.6013 45.7109C50.6755 45.7109 50.7498 45.7109 50.8241 45.7109C50.8985 45.7109 50.9728 45.7109 51.0472 45.7109C51.1216 45.7109 51.196 45.7109 51.2705 45.7109C51.345 45.7109 51.4195 45.7109 51.494 45.7109C51.5685 45.7109 51.6431 45.7109 51.7177 45.7109C51.7923 45.7109 51.8669 45.7109 51.9416 45.7109C52.0162 45.7109 52.0909 45.7109 52.1656 45.7109C52.2403 45.7109 52.3151 45.7109 52.3899 45.7109C52.4647 45.7109 52.5395 45.7109 52.6143 45.7109C52.6892 45.7109 52.764 45.7109 52.839 45.7109C52.9139 45.7109 52.9888 45.7109 53.0638 45.7109C53.1387 45.7109 53.2137 45.7109 53.2887 45.7109C53.3638 45.7109 53.4388 45.7109 53.5139 45.7109C53.589 45.7109 53.6641 45.7109 53.7392 45.7109C53.8144 45.7109 53.8895 45.7109 53.9647 45.7109C54.0399 45.7109 54.1151 45.7109 54.1904 45.7109C54.2656 45.7109 54.3409 45.7109 54.4162 45.7109C54.4915 45.7109 54.5668 45.7109 54.6421 45.7109C54.7175 45.7109 54.7929 45.7109 54.8683 45.7109C54.9437 45.7109 55.0191 45.7109 55.0945 45.7109C55.17 45.7109 55.2455 45.7109 55.321 45.7109C55.3965 45.7109 55.472 45.7109 55.5475 45.7109C55.6231 45.7109 55.6986 45.7109 55.7742 45.7109C55.8498 45.7109 55.9254 45.7109 56.0011 45.7109C56.0767 45.7109 56.1524 45.7109 56.228 45.7109C56.3037 45.7109 56.3794 45.7109 56.4551 45.7109C56.5309 45.7109 56.6066 45.7109 56.6824 45.7109C56.7581 45.7109 56.8339 45.7109 56.9097 45.7109C56.9855 45.7109 57.0614 45.7109 57.1372 45.7109C57.2131 45.7109 57.2889 45.7109 57.3648 45.7109C57.4407 45.7109 57.5166 45.7109 57.5925 45.7109C57.6684 45.7109 57.7444 45.7109 57.8203 45.7109C57.8963 45.7109 57.9723 45.7109 58.0483 45.7109C58.1243 45.7109 58.2003 45.7109 58.2763 45.7109C58.3523 45.7109 58.4284 45.7109 58.5044 45.7109C58.5805 45.7109 58.6566 45.7109 58.7327 45.7109C58.8087 45.7109 58.8849 45.7109 58.961 45.7109C59.0371 45.7109 59.1132 45.7109 59.1894 45.7109C59.2656 45.7109 59.3417 45.7109 59.4179 45.7109C59.4941 45.7109 59.5703 45.7109 59.6465 45.7109C59.7227 45.7109 59.7989 45.7109 59.8752 45.7109C59.9514 45.7109 60.0277 45.7109 60.1039 45.7109C60.1802 45.7109 60.2565 45.7109 60.3328 45.7109C60.409 45.7109 60.4853 45.7109 60.5616 45.7109C60.638 45.7109 60.7143 45.7109 60.7906 45.7109C60.867 45.7109 60.9433 45.7109 61.0197 45.7109C61.096 45.7109 61.1724 45.7109 61.2488 45.7109C61.3251 45.7109 61.4015 45.7109 61.4779 45.7109C61.5543 45.7109 61.6307 45.7109 61.7071 45.7109C61.7835 45.7109 61.86 45.7109 61.9364 45.7109C62.0128 45.7109 62.0893 45.7109 62.1657 45.7109C62.2421 45.7109 62.3186 45.7109 62.3951 45.7109C62.4715 45.7109 62.548 45.7109 62.6245 45.7109C62.7009 45.7109 62.7774 45.7109 62.8539 45.7109C62.9304 45.7109 63.0069 45.7109 63.0834 45.7109C63.1599 45.7109 63.2364 45.7109 63.3129 45.7109C63.3894 45.7109 63.4659 45.7109 63.5425 45.7109C63.619 45.7109 63.6955 45.7109 63.772 45.7109C63.8486 45.7109 63.9251 45.7109 64.0016 45.7109C64.0782 45.7109 64.1547 45.7109 64.2312 45.7109C64.3078 45.7109 64.3843 45.7109 64.4609 45.7109C64.5374 45.7109 64.614 45.7109 64.6905 45.7109C64.7671 45.7109 64.8436 45.7109 64.9202 45.7109C64.9967 45.7109 65.0733 45.7109 65.1498 45.7109C65.2264 45.7109 65.303 45.7109 65.3795 45.7109C65.4561 45.7109 65.5326 45.7109 65.6092 45.7109C65.6857 45.7109 65.7623 45.7109 65.8389 45.7109C65.9154 45.7109 65.992 45.7109 66.0685 45.7109C66.1451 45.7109 66.2216 45.7109 66.2982 45.7109C66.3747 45.7109 66.4513 45.7109 66.5278 45.7109C66.6044 45.7109 66.6809 45.7109 66.7574 45.7109C66.834 45.7109 66.9105 45.7109 66.9871 45.7109C67.0636 45.7109 67.1401 45.7109 67.2166 45.7109C67.2932 45.7109 67.3697 45.7109 67.4462 45.7109C67.5227 45.7109 67.5992 45.7109 67.6757 45.7109C67.7522 45.7109 67.8287 45.7109 67.9052 45.7109C67.9817 45.7109 68.0582 45.7109 68.1347 45.7109C68.2112 45.7109 68.2877 45.7109 68.3641 45.7109C68.4406 45.7109 68.5171 45.7109 68.5935 45.7109C68.67 45.7109 68.7464 45.7109 68.8229 45.7109C68.8993 45.7109 68.9757 45.7109 69.0522 45.7109C69.1286 45.7109 69.205 45.7109 69.2814 45.7109C69.3578 45.7109 69.4342 45.7109 69.5106 45.7109C69.587 45.7109 69.6634 45.7109 69.7397 45.7109C69.8161 45.7109 69.8925 45.7109 69.9688 45.7109C70.0452 45.7109 70.1215 45.7109 70.1978 45.7109C70.2742 45.7109 70.3505 45.7109 70.4268 45.7109C70.5031 45.7109 70.5794 45.7109 70.6557 45.7109C70.7319 45.7109 70.8082 45.7109 70.8845 45.7109C70.9607 45.7109 71.037 45.7109 71.1132 45.7109C71.1894 45.7109 71.2656 45.7109 71.3418 45.7109C71.418 45.7109 71.4942 45.7109 71.5704 45.7109C71.6466 45.7109 71.7227 45.7109 71.7989 45.7109C71.875 45.7109 71.9511 45.7109 72.0272 45.7109C72.1034 45.7109 72.1795 45.7109 72.2555 45.7109C72.3316 45.7109 72.4077 45.7109 72.4837 45.7109C72.5598 45.7109 72.6358 45.7109 72.7118 45.7109C72.7878 45.7109 72.8638 45.7109 72.9398 45.7109C73.0158 45.7109 73.0918 45.7109 73.1677 45.7109C73.2437 45.7109 73.3196 45.7109 73.3955 45.7109C73.4714 45.7109 73.5473 45.7109 73.6232 45.7109C73.699 45.7109 73.7749 45.7109 73.8507 45.7109C73.9265 45.7109 74.0024 45.7109 74.0781 45.7109C74.1539 45.7109 74.2297 45.7109 74.3055 45.7109C74.3812 45.7109 74.4569 45.7109 74.5326 45.7109C74.6084 45.7109 74.684 45.7109 74.7597 45.7109C74.8354 45.7109 74.911 45.7109 74.9866 45.7109C75.0623 45.7109 75.1378 45.7109 75.2134 45.7109C75.289 45.7109 75.3645 45.7109 75.4401 45.7109C75.5156 45.7109 75.5911 45.7109 75.6666 45.7109C75.7421 45.7109 75.8175 45.7109 75.893 45.7109C75.9684 45.7109 76.0438 45.7109 76.1192 45.7109C76.1946 45.7109 76.2699 45.7109 76.3452 45.7109C76.4206 45.7109 76.4959 45.7109 76.5712 45.7109C76.6464 45.7109 76.7217 45.7109 76.7969 45.7109C76.8721 45.7109 76.9473 45.7109 77.0225 45.7109C77.0977 45.7109 77.1728 45.7109 77.2479 45.7109C77.3231 45.7109 77.3981 45.7109 77.4732 45.7109C77.5483 45.7109 77.6233 45.7109 77.6983 45.7109C77.7733 45.7109 77.8483 45.7109 77.9232 45.7109C77.9982 45.7109 78.0731 45.7109 78.148 45.7109C78.2228 45.7109 78.2977 45.7109 78.3725 45.7109C78.4473 45.7109 78.5221 45.7109 78.5969 45.7109C78.6717 45.7109 78.7464 45.7109 78.8211 45.7109C78.8958 45.7109 78.9705 45.7109 79.0451 45.7109C79.1197 45.7109 79.1943 45.7109 79.2689 45.7109C79.3435 45.7109 79.418 45.7109 79.4925 45.7109C79.567 45.7109 79.6415 45.7109 79.7159 45.7109C79.7904 45.7109 79.8648 45.7109 79.9391 45.7109C80.0135 45.7109 80.0878 45.7109 80.1621 45.7109C80.2364 45.7109 80.3107 45.7109 80.3849 45.7109C80.4592 45.7109 80.5334 45.7109 80.6075 45.7109C80.6817 45.7109 80.7558 45.7109 80.8299 45.7109C80.904 45.7109 80.978 45.7109 81.052 45.7109C81.126 45.7109 81.2 45.7109 81.2739 45.7109C81.3479 45.7109 81.4218 45.7109 81.4957 45.7109C81.5695 45.7109 81.6433 45.7109 81.7171 45.7109C81.7909 45.7109 81.8646 45.7109 81.9384 45.7109C82.0121 45.7109 82.0857 45.7109 82.1594 45.7109C82.233 45.7109 82.3066 45.7109 82.3801 45.7109C82.4537 45.7109 82.5272 45.7109 82.6006 45.7109C82.6741 45.7109 82.7475 45.7109 82.8209 45.7109C82.8943 45.7109 82.9677 45.7109 83.041 45.7109C83.1143 45.7109 83.1875 45.7109 83.2607 45.7109C83.3339 45.7109 83.4071 45.7109 83.4802 45.7109C83.5534 45.7109 83.6265 45.7109 83.6995 45.7109C83.7726 45.7109 83.8456 45.7109 83.9185 45.7109C83.9915 45.7109 84.0644 45.7109 84.1373 45.7109C84.2101 45.7109 84.283 45.7109 84.3557 45.7109C84.4285 45.7109 84.5012 45.7109 84.5739 45.7109C84.6466 45.7109 84.7193 45.7109 84.7919 45.7109C84.8645 45.7109 84.937 45.7109 85.0095 45.7109C85.082 45.7109 85.1545 45.7109 85.2269 45.7109C85.2993 45.7109 85.3716 45.7109 85.444 45.7109C85.5163 45.7109 85.5885 45.7109 85.6608 45.7109C85.733 45.7109 85.8051 45.7109 85.8773 45.7109C85.9494 45.7109 86.0215 45.7109 86.0935 45.7109C86.1655 45.7109 86.2375 45.7109 86.3094 45.7109C86.3813 45.7109 86.4532 45.7109 86.525 45.7109C86.5968 45.7109 86.6686 45.7109 86.7403 45.7109C86.812 45.7109 86.8837 45.7109 86.9553 45.7109C87.0269 45.7109 87.0985 45.7109 87.17 45.7109C87.2415 45.7109 87.313 45.7109 87.3844 45.7109C87.4558 45.7109 87.5272 45.7109 87.5985 45.7109C87.6698 45.7109 87.741 45.7109 87.8122 45.7109C87.8834 45.7109 87.9546 45.7109 88.0257 45.7109C88.0967 45.7109 88.1678 45.7109 88.2388 45.7109C88.3097 45.7109 88.3807 45.7109 88.4515 45.7109C88.5224 45.7109 88.5932 45.7109 88.664 45.7109C88.7347 45.7109 88.8054 45.7109 88.8761 45.7109C88.9467 45.7109 89.0173 45.7109 89.0878 45.7109C89.1584 45.7109 89.2288 45.7109 89.2993 45.7109C89.3697 45.7109 89.44 45.7109 89.5103 45.7109C89.5806 45.7109 89.6509 45.7109 89.7211 45.7109C89.7912 45.7109 89.8614 45.7109 89.9314 45.7109C90.0015 45.7109 90.0715 45.7109 90.1415 45.7109C90.2114 45.7109 90.2813 45.7109 90.3511 45.7109C90.4209 45.7109 90.4907 45.7109 90.5604 45.7109C90.6301 45.7109 90.6998 45.7109 90.7694 45.7109C90.8389 45.7109 90.9085 45.7109 90.9779 45.7109C91.0474 45.7109 91.1168 45.7109 91.1861 45.7109C91.2555 45.7109 91.3247 45.7109 91.3939 45.7109C91.4632 45.7109 91.5323 45.7109 91.6014 45.7109C91.6705 45.7109 91.7395 45.7109 91.8084 45.7109C91.8774 45.7109 91.9463 45.7109 92.0151 45.7109C92.084 45.7109 92.1527 45.7109 92.2214 45.7109C92.2901 45.7109 92.3588 45.7109 92.4273 45.7109C92.4959 45.7109 92.5644 45.7109 92.6328 45.7109C92.7013 45.7109 92.7696 45.7109 92.8379 45.7109C92.9062 45.7109 92.9745 45.7109 93.0426 45.7109C93.1108 45.7109 93.1789 45.7109 93.247 45.7109C93.315 45.7109 93.383 45.7109 93.4509 45.7109C93.5188 45.7109 93.5866 45.7109 93.6543 45.7109C93.7221 45.7109 93.7898 45.7109 93.8574 45.7109C93.925 45.7109 93.9926 45.7109 94.0601 45.7109C94.1276 45.7109 94.195 45.7109 94.2623 45.7109C94.3297 45.7109 94.3969 45.7109 94.4641 45.7109C94.5313 45.7109 94.5985 45.7109 94.6655 45.7109C94.7326 45.7109 94.7996 45.7109 94.8665 45.7109C94.9334 45.7109 95.0002 45.7109 95.067 45.7109C95.1338 45.7109 95.2005 45.7109 95.2671 45.7109C95.3337 45.7109 95.4003 45.7109 95.4668 45.7109C95.5332 45.7109 95.5996 45.7109 95.666 45.7109C95.7323 45.7109 95.7986 45.7109 95.8647 45.7109C95.9309 45.7109 95.997 45.7109 96.063 45.7109C96.1291 45.7109 96.195 45.7109 96.2609 45.7109C96.3268 45.7109 96.3926 45.7109 96.4583 45.7109C96.524 45.7109 96.5897 45.7109 96.6553 45.7109C96.7208 45.7109 96.7863 45.7109 96.8518 45.7109C96.9172 45.7109 96.9825 45.7109 97.0478 45.7109C97.113 45.7109 97.1782 45.7109 97.2433 45.7109C97.3084 45.7109 97.3735 45.7109 97.4384 45.7109C97.5034 45.7109 97.5682 45.7109 97.633 45.7109C97.6978 45.7109 97.7625 45.7109 97.8272 45.7109C97.8918 45.7109 97.9563 45.7109 98.0208 45.7109C98.0853 45.7109 98.1497 45.7109 98.214 45.7109C98.2783 45.7109 98.3425 45.7109 98.4066 45.7109C98.4708 45.7109 98.5348 45.7109 98.5988 45.7109C98.6628 45.7109 98.7267 45.7109 98.7905 45.7109C98.8543 45.7109 98.9181 45.7109 98.9817 45.7109C99.0454 45.7109 99.1089 45.7109 99.1724 45.7109C99.2359 45.7109 99.2993 45.7109 99.3626 45.7109C99.4259 45.7109 99.4891 45.7109 99.5523 45.7109C99.6154 45.7109 99.6785 45.7109 99.7414 45.7109C99.8044 45.7109 99.8673 45.7109 99.9301 45.7109C99.9929 45.7109 100.056 45.7109 100.118 45.7109C100.181 45.7109 100.243 45.7109 100.306 45.7109C100.368 45.7109 100.431 45.7109 100.493 45.7109C100.555 45.7109 100.617 45.7109 100.68 45.7109C100.742 45.7109 100.804 45.7109 100.866 45.7109C100.927 45.7109 100.989 45.7109 101.051 45.7109C101.113 45.7109 101.174 45.7109 101.236 45.7109C101.298 45.7109 101.359 45.7109 101.42 45.7109C101.482 45.7109 101.543 45.7109 101.604 45.7109C101.666 45.7109 101.727 45.7109 101.788 45.7109C101.849 45.7109 101.91 45.7109 101.97 45.7109C102.031 45.7109 102.092 45.7109 102.153 45.7109C102.213 45.7109 102.274 45.7109 102.334 45.7109C102.395 45.7109 102.455 45.7109 102.516 45.7109C102.576 45.7109 102.636 45.7109 102.696 45.7109C102.756 45.7109 102.816 45.7109 102.876 45.7109C102.936 45.7109 102.996 45.7109 103.056 45.7109C103.115 45.7109 103.175 45.7109 103.234 45.7109C103.294 45.7109 103.353 45.7109 103.413 45.7109C103.472 45.7109 103.531 45.7109 103.59 45.7109C103.649 45.7109 103.709 45.7109 103.767 45.7109C103.826 45.7109 103.885 45.7109 103.944 45.7109C104.003 45.7109 104.061 45.7109 104.12 45.7109C104.179 45.7109 104.237 45.7109 104.295 45.7109C104.354 45.7109 104.412 45.7109 104.47 45.7109C104.528 45.7109 104.586 45.7109 104.644 45.7109C104.702 45.7109 104.76 45.7109 104.818 45.7109C104.876 45.7109 104.933 45.7109 104.991 45.7109C105.048 45.7109 105.106 45.7109 105.163 45.7109C105.22 45.7109 105.278 45.7109 105.335 45.7109C105.392 45.7109 105.449 45.7109 105.506 45.7109C105.563 45.7109 105.62 45.7109 105.676 45.7109C105.733 45.7109 105.79 45.7109 105.846 45.7109C105.903 45.7109 105.959 45.7109 106.016 45.7109C106.072 45.7109 106.128 45.7109 106.184 45.7109C106.24 45.7109 106.296 45.7109 106.352 45.7109C106.408 45.7109 106.464 45.7109 106.52 45.7109C106.575 45.7109 106.631 45.7109 106.686 45.7109C106.742 45.7109 106.797 45.7109 106.853 45.7109C106.908 45.7109 106.963 45.7109 107.018 45.7109C107.073 45.7109 107.128 45.7109 107.183 45.7109C107.238 45.7109 107.292 45.7109 107.347 45.7109C107.402 45.7109 107.456 45.7109 107.51 45.7109C107.565 45.7109 107.619 45.7109 107.673 45.7109C107.727 45.7109 107.782 45.7109 107.835 45.7109C107.889 45.7109 107.943 45.7109 107.997 45.7109C108.051 45.7109 108.104 45.7109 108.158 45.7109C108.211 45.7109 108.265 45.7109 108.318 45.7109C108.371 45.7109 108.424 45.7109 108.478 45.7109C108.531 45.7109 108.584 45.7109 108.636 45.7109C108.689 45.7109 108.742 45.7109 108.795 45.7109C108.847 45.7109 108.9 45.7109 108.952 45.7109C109.004 45.7109 109.057 45.7109 109.109 45.7109C109.161 45.7109 109.213 45.7109 109.265 45.7109C109.317 45.7109 109.369 45.7109 109.42 45.7109C109.472 45.7109 109.524 45.7109 109.575 45.7109C109.627 45.7109 109.678 45.7109 109.729 45.7109C109.78 45.7109 109.831 45.7109 109.882 45.7109C109.933 45.7109 109.984 45.7109 110.035 45.7109C110.086 45.7109 110.136 45.7109 110.187 45.7109C110.237 45.7109 110.288 45.7109 110.338 45.7109C110.388 45.7109 110.439 45.7109 110.489 45.7109C110.539 45.7109 110.589 45.7109 110.638 45.7109C110.688 45.7109 110.738 45.7109 110.787 45.7109C110.837 45.7109 110.886 45.7109 110.936 45.7109C110.985 45.7109 111.034 45.7109 111.083 45.7109C111.132 45.7109 111.181 45.7109 111.23 45.7109C111.279 45.7109 111.328 45.7109 111.376 45.7109C111.425 45.7109 111.473 45.7109 111.522 45.7109C111.57 45.7109 111.618 45.7109 111.666 45.7109C111.715 45.7109 111.762 45.7109 111.81 45.7109C111.858 45.7109 111.906 45.7109 111.953 45.7109C112.001 45.7109 112.049 45.7109 112.096 45.7109C112.143 45.7109 112.19 45.7109 112.238 45.7109C112.285 45.7109 112.332 45.7109 112.378 45.7109C112.425 45.7109 112.472 45.7109 112.519 45.7109C112.565 45.7109 112.612 45.7109 112.658 45.7109C112.704 45.7109 112.751 45.7109 112.797 45.7109C112.843 45.7109 112.889 45.7109 112.934 45.7109C112.98 45.7109 113.026 45.7109 113.072 45.7109C113.117 45.7109 113.163 45.7109 113.208 45.7109C113.253 45.7109 113.298 45.7109 113.343 45.7109C113.388 45.7109 113.433 45.7109 113.478 45.7109C113.523 45.7109 113.567 45.7109 113.612 45.7109C113.657 45.7109 113.701 45.7109 113.745 45.7109C113.789 45.7109 113.834 45.7109 113.878 45.7109C113.922 45.7109 113.965 45.7109 114.009 45.7109C114.053 45.7109 114.096 45.7109 114.14 45.7109C114.183 45.7109 114.227 45.7109 114.27 45.7109C114.313 45.7109 114.356 45.7109 114.399 45.7109C114.442 45.7109 114.485 45.7109 114.527 45.7109C114.57 45.7109 114.613 45.7109 114.655 45.7109C114.697 45.7109 114.74 45.7109 114.782 45.7109C114.824 45.7109 114.866 45.7109 114.908 45.7109C114.949 45.7109 114.991 45.7109 115.033 45.7109C115.074 45.7109 115.116 45.7109 115.157 45.7109C115.198 45.7109 115.239 45.7109 115.28 45.7109C115.321 45.7109 115.362 45.7109 115.403 45.7109C115.444 45.7109 115.484 45.7109 115.525 45.7109C115.565 45.7109 115.606 45.7109 115.646 45.7109C115.686 45.7109 115.726 45.7109 115.766 45.7109C115.806 45.7109 115.845 45.7109 115.885 45.7109C115.925 45.7109 115.964 45.7109 116.003 45.7109C116.043 45.7109 116.082 45.7109 116.121 45.7109C116.16 45.7109 116.199 45.7109 116.238 45.7109C116.276 45.7109 116.315 45.7109 116.354 45.7109C116.392 45.7109 116.43 45.7109 116.469 45.7109C116.507 45.7109 116.545 45.7109 116.583 45.7109C116.621 45.7109 116.658 45.7109 116.696 45.7109C116.734 45.7109 116.771 45.7109 116.808 45.7109C116.846 45.7109 116.883 45.7109 116.92 45.7109C116.957 45.7109 116.994 45.7109 117.03 45.7109C117.067 45.7109 117.104 45.7109 117.14 45.7109C117.177 45.7109 117.213 45.7109 117.249 45.7109C117.285 45.7109 117.321 45.7109 117.357 45.7109C117.393 45.7109 117.429 45.7109 117.464 45.7109C117.5 45.7109 117.535 45.7109 117.57 45.7109C117.606 45.7109 117.641 45.7109 117.676 45.7109C117.711 45.7109 117.745 45.7109 117.78 45.7109C117.815 45.7109 117.849 45.7109 117.884 45.7109C117.918 45.7109 117.952 45.7109 117.986 45.7109C118.02 45.7109 118.054 45.7109 118.088 45.7109C118.122 45.7109 118.155 45.7109 118.189 45.7109C118.222 45.7109 118.255 45.7109 118.289 45.7109C118.322 45.7109 118.355 45.7109 118.387 45.7109C118.42 45.7109 118.453 45.7109 118.486 45.7109C118.518 45.7109 118.55 45.7109 118.583 45.7109C118.615 45.7109 118.647 45.7109 118.679 45.7109C118.711 45.7109 118.742 45.7109 118.774 45.7109C118.806 45.7109 118.837 45.7109 118.868 45.7109C118.9 45.7109 118.931 45.7109 118.962 45.7109C118.993 45.7109 119.023 45.7109 119.054 45.7109C119.085 45.7109 119.115 45.7109 119.146 45.7109C119.176 45.7109 119.206 45.7109 119.236 45.7109C119.266 45.7109 119.296 45.7109 119.326 45.7109C119.355 45.7109 119.385 45.7109 119.414 45.7109C119.444 45.7109 119.473 45.7109 119.502 45.7109C119.531 45.7109 119.56 45.7109 119.589 45.7109C119.618 45.7109 119.646 45.7109 119.675 45.7109C119.703 45.7109 119.731 45.7109 119.759 45.7109C119.787 45.7109 119.815 45.7109 119.843 45.7109C119.871 45.7109 119.899 45.7109 119.926 45.7109C119.953 45.7109 119.981 45.7109 120.008 45.7109C120.035 45.7109 120.062 45.7109 120.089 45.7109C120.116 45.7109 120.142 45.7109 120.169 45.7109C120.195 45.7109 120.221 45.7109 120.248 45.7109C120.274 45.7109 120.3 45.7109 120.325 45.7109C120.351 45.7109 120.377 45.7109 120.402 45.7109C120.428 45.7109 120.453 45.7109 120.478 45.7109C120.503 45.7109 120.528 45.7109 120.553 45.7109C120.578 45.7109 120.603 45.7109 120.627 45.7109C120.652 45.7109 120.676 45.7109 120.7 45.7109C120.724 45.7109 120.748 45.7109 120.772 45.7109C120.796 45.7109 120.819 45.7109 120.843 45.7109C120.866 45.7109 120.89 45.7109 120.913 45.7109C120.936 45.7109 120.959 45.7109 120.982 45.7109C121.005 45.7109 121.027 45.7109 121.05 45.7109C121.072 45.7109 121.094 45.7109 121.116 45.7109C121.139 45.7109 121.16 45.7109 121.182 45.7109C121.204 45.7109 121.226 45.7109 121.247 45.7109C121.268 45.7109 121.29 45.7109 121.311 45.7109C121.332 45.7109 121.353 45.7109 121.373 45.7109C121.394 45.7109 121.415 45.7109 121.435 45.7109C121.455 45.7109 121.476 45.7109 121.496 45.7109C121.516 45.7109 121.536 45.7109 121.555 45.7109C121.575 45.7109 121.594 45.7109 121.614 45.7109C121.633 45.7109 121.652 45.7109 121.671 45.7109C121.69 45.7109 121.709 45.7109 121.728 45.7109C121.746 45.7109 121.765 45.7109 121.783 45.7109C121.801 45.7109 121.819 45.7109 121.837 45.7109C121.855 45.7109 121.873 45.7109 121.89 45.7109C121.908 45.7109 121.925 45.7109 121.943 45.7109C121.96 45.7109 121.977 45.7109 121.994 45.7109C122.01 45.7109 122.027 45.7109 122.044 45.7109C122.06 45.7109 122.076 45.7109 122.092 45.7109C122.109 45.7109 122.125 45.7109 122.14 45.7109C122.156 45.7109 122.172 45.7109 122.187 45.7109C122.202 45.7109 122.218 45.7109 122.233 45.7109C122.248 45.7109 122.263 45.7109 122.277 45.7109C122.292 45.7109 122.306 45.7109 122.321 45.7109C122.335 45.7109 122.349 45.7109 122.363 45.7109C122.377 45.7109 122.391 45.7109 122.404 45.7109C122.418 45.7109 122.431 45.7109 122.444 45.7109C122.458 45.7109 122.471 45.7109 122.483 45.7109C122.496 45.7109 122.509 45.7109 122.521 45.7109C122.534 45.7109 122.546 45.7109 122.558 45.7109C122.57 45.7109 122.582 45.7109 122.594 45.7109C122.606 45.7109 122.617 45.7109 122.628 45.7109C122.64 45.7109 122.651 45.7109 122.662 45.7109C122.673 45.7109 122.684 45.7109 122.694 45.7109C122.705 45.7109 122.715 45.7109 122.725 45.7109C122.736 45.7109 122.746 45.7109 122.755 45.7109C122.765 45.7109 122.775 45.7109 122.784 45.7109C122.794 45.7109 122.803 45.7109 122.812 45.7109C122.821 45.7109 122.83 45.7109 122.839 45.7109C122.847 45.7109 122.856 45.7109 122.864 45.7109C122.872 45.7109 122.881 45.7109 122.888 45.7109C122.896 45.7109 122.904 45.7109 122.912 45.7109C122.919 45.7109 122.926 45.7109 122.934 45.7109C122.941 45.7109 122.948 45.7109 122.954 45.7109C122.961 45.7109 122.968 45.7109 122.974 45.7109C122.981 45.7109 122.987 45.7109 122.993 45.7109C122.999 45.7109 123.004 45.7109 123.01 45.7109C123.016 45.7109 123.021 45.7109 123.026 45.7109C123.031 45.7109 123.036 45.7109 123.041 45.7109C123.046 45.7109 123.051 45.7109 123.055 45.7109C123.059 45.7109 123.064 45.7109 123.068 45.7109C123.072 45.7109 123.075 45.7109 123.079 45.7109C123.083 45.7109 123.086 45.7109 123.089 45.7109C123.093 45.7109 123.096 45.7109 123.098 45.7109C123.101 45.7109 123.104 45.7109 123.106 45.7109C123.109 45.7109 123.111 45.7109 123.113 45.7109C123.115 45.7109 123.117 45.7109 123.118 45.7109C123.12 45.7109 123.121 45.7109 123.123 45.7109C123.124 45.7109 123.125 45.7109 123.126 45.7109C123.126 45.7109 123.127 45.7109 123.127 45.7109C123.128 45.7109 123.128 45.7109 123.128 35.7109Z" fill="#C7C7C7" mask="url(#path-3-outside-1_411_21)"/>
</svg>
